<svg width="11" height="20" viewBox="0 0 11 20" fill="none" xmlns="http://www.w3.org/2000/svg">
<path d="M10.9971 19.2316C10.9971 19.3845 10.9514 19.5339 10.866 19.6607C10.7806 19.7875 10.6594 19.886 10.5177 19.9435C10.376 20.001 10.2205 20.015 10.0708 19.9837C9.92118 19.9523 9.78429 19.877 9.67766 19.7675L0.455099 10.5449C0.311014 10.4008 0.230072 10.2053 0.230072 10.0015C0.230072 9.7977 0.311014 9.60224 0.455099 9.4581L9.67766 0.235544C9.74851 0.161943 9.83333 0.103207 9.92715 0.0627708C10.021 0.0223331 10.1219 0.00100517 10.2241 3.62396e-05C10.3262 -0.000934601 10.4276 0.0184727 10.5221 0.0571213C10.6167 0.095768 10.7026 0.152884 10.7749 0.225126C10.8471 0.297367 10.9042 0.383286 10.9429 0.477859C10.9815 0.572432 11.0009 0.673761 11 0.775923C10.999 0.878082 10.9777 0.979023 10.9372 1.07285C10.8968 1.16667 10.8381 1.25149 10.7645 1.32234L2.08526 10.0015L10.7645 18.6807C10.8381 18.7524 10.8966 18.838 10.9366 18.9326C10.9765 19.0272 10.9971 19.1289 10.9971 19.2316L10.9971 19.2316Z" fill="black"/>
</svg>
