<svg width="11" height="20" viewBox="0 0 11 20" fill="none" xmlns="http://www.w3.org/2000/svg">
<path d="M0.00290338 19.2316C0.00294236 19.3845 0.0485767 19.5339 0.133973 19.6607C0.219369 19.7875 0.340646 19.886 0.482299 19.9435C0.623952 20.001 0.779543 20.015 0.929183 19.9837C1.07882 19.9523 1.21571 19.877 1.32234 19.7675L10.5449 10.5449C10.689 10.4008 10.7699 10.2053 10.7699 10.0015C10.7699 9.7977 10.689 9.60224 10.5449 9.4581L1.32234 0.235544C1.25149 0.161943 1.16667 0.103207 1.07285 0.0627708C0.979023 0.0223331 0.878081 0.00100517 0.775921 3.62396e-05C0.67376 -0.000934601 0.572431 0.0184727 0.477858 0.0571213C0.383286 0.095768 0.297366 0.152884 0.225124 0.225126C0.152883 0.297367 0.0957683 0.383286 0.0571199 0.477859C0.0184715 0.572432 -0.00093534 0.673761 3.46456e-05 0.775923C0.00100463 0.878082 0.0223315 0.979023 0.0627687 1.07285C0.103206 1.16667 0.161942 1.25149 0.235542 1.32234L8.91474 10.0015L0.235542 18.6807C0.16192 18.7524 0.1034 18.838 0.0634386 18.9326C0.0234773 19.0272 0.00288515 19.1289 0.00287993 19.2316L0.00290338 19.2316Z" fill="black"/>
</svg>
