<svg width="740" height="497" viewBox="0 0 740 497" fill="none" xmlns="http://www.w3.org/2000/svg">
<g filter="url(#filter0_d)">
<path d="M713.53 205.284V231.508L369.741 430V206.036L713.53 205.284Z" fill="#C7D1E1"/>
<path d="M369.741 206.036V430L25.9746 231.508V205.284L369.741 206.036Z" fill="url(#paint0_linear)"/>
<path d="M25.9746 205.284L369.741 403.771L713.53 205.284L369.741 6.7991L25.9746 205.284Z" fill="#D4E0F2"/>
</g>
<path d="M487.774 172.942C484.242 172.942 480.758 172.008 477.7 170.243L435.92 146.118C433.228 144.564 431.556 141.666 431.556 138.558C431.556 135.448 433.228 132.552 435.92 130.998L477.699 106.874C480.757 105.108 484.242 104.175 487.774 104.175C491.307 104.175 494.79 105.108 497.849 106.874L539.628 130.998C542.321 132.552 543.994 135.447 543.994 138.558C543.994 141.668 542.321 144.564 539.626 146.118L497.849 170.243C494.79 172.008 491.306 172.942 487.774 172.942Z" stroke="#01A6FF" stroke-width="2" stroke-miterlimit="10" stroke-linecap="round" stroke-linejoin="round"/>
<path d="M438.271 47.0302V138.558C438.271 139.236 438.608 139.914 439.279 140.304L481.058 164.427C485.215 166.826 490.336 166.826 494.491 164.427L536.271 140.304C536.942 139.914 537.278 139.236 537.278 138.558H537.31V47.0302H438.271Z" fill="url(#paint1_linear)"/>
<path d="M438.271 60.7592C438.271 61.4383 438.608 62.1162 439.279 62.5037L481.058 86.6278C485.215 89.0274 490.335 89.0274 494.491 86.6278L536.271 62.5037C536.942 62.1162 537.278 61.4383 537.278 60.7592" stroke="#01A6FF" stroke-width="2" stroke-miterlimit="10" stroke-linecap="round" stroke-linejoin="round"/>
<path d="M481.059 21.1622L439.279 45.2863C437.936 46.0614 437.936 48.0003 439.279 48.7754L481.059 72.8983C485.215 75.2979 490.335 75.2979 494.492 72.8983L536.271 48.7754C537.615 48.0003 537.615 46.0614 536.271 45.2863L494.492 21.1622C490.335 18.7626 485.215 18.7626 481.059 21.1622Z" fill="white"/>
<path d="M447.001 47.0303L487.775 23.4882L528.549 47.0303L487.775 70.5725L447.001 47.0303Z" fill="#D4E0F2"/>
<path d="M449.975 48.7463L487.776 70.5725L525.578 48.7463L487.776 26.9201L449.975 48.7463Z" fill="#FF9000"/>
<path d="M253.965 175.232C250.433 175.232 246.949 174.299 243.891 172.533L202.111 148.407C199.419 146.854 197.746 143.957 197.746 140.847C197.746 137.739 199.419 134.841 202.111 133.287L243.891 109.163C246.949 107.397 250.432 106.464 253.965 106.464C257.497 106.464 260.982 107.397 264.04 109.163L305.819 133.287C308.512 134.841 310.184 137.738 310.184 140.847C310.184 143.958 308.512 146.854 305.817 148.407L264.04 172.533C260.981 174.299 257.497 175.232 253.965 175.232Z" stroke="#01A6FF" stroke-width="2" stroke-miterlimit="10" stroke-linecap="round" stroke-linejoin="round"/>
<path d="M204.461 49.3207V140.847C204.461 141.526 204.797 142.205 205.469 142.592L247.248 166.715C251.403 169.116 256.524 169.116 260.68 166.715L302.461 142.592C303.132 142.205 303.468 141.526 303.468 140.847H303.501V49.3207H204.461Z" fill="url(#paint2_linear)"/>
<path d="M204.461 63.05C204.461 63.729 204.797 64.4069 205.468 64.7945L247.248 88.9186C251.405 91.3182 256.524 91.3182 260.681 88.9186L302.461 64.7945C303.132 64.4069 303.468 63.729 303.468 63.05" stroke="#01A6FF" stroke-width="2" stroke-miterlimit="10" stroke-linecap="round" stroke-linejoin="round"/>
<path d="M271.798 93.9404V103.093L295.574 89.3642V80.2105L271.798 93.9404Z" fill="url(#paint3_linear)"/>
<path d="M269.815 92.7961L271.797 93.9393V103.093L269.815 101.949V92.7961Z" fill="#EEEFFD"/>
<path d="M293.593 79.0672L295.573 80.2105L271.798 93.9404L269.815 92.7961L293.593 79.0672Z" fill="white"/>
<path d="M280.106 92.7209C279.352 91.9664 277.683 92.4134 276.378 93.7201C275.073 95.0245 274.625 96.6936 275.378 97.447C276.132 98.2015 277.801 97.7533 279.106 96.4489C280.413 95.1434 280.859 93.4743 280.106 92.7209Z" stroke="#01A6FF" stroke-width="1.34327" stroke-miterlimit="10" stroke-linecap="round" stroke-linejoin="round"/>
<path d="M291.994 85.8561C291.24 85.1027 289.571 85.5497 288.264 86.8552C286.96 88.1608 286.513 89.8299 287.266 90.5833C288.02 91.3366 289.689 90.8896 290.994 89.5841C292.3 88.2797 292.747 86.6106 291.994 85.8561Z" stroke="#01A6FF" stroke-width="1.34327" stroke-miterlimit="10" stroke-linecap="round" stroke-linejoin="round"/>
<path d="M247.248 23.453L205.468 47.5771C204.125 48.3522 204.125 50.2911 205.468 51.0662L247.248 75.1891C251.404 77.5887 256.524 77.5887 260.681 75.1891L302.46 51.0662C303.803 50.2911 303.803 48.3522 302.46 47.5771L260.681 23.453C256.524 21.0534 251.404 21.0534 247.248 23.453Z" fill="white"/>
<path d="M213.19 49.3211L253.964 25.7789L294.738 49.3211L253.964 72.8633L213.19 49.3211Z" fill="#D4E0F2"/>
<path d="M216.162 51.0371L253.964 72.8633L291.765 51.0371L253.964 29.2109L216.162 51.0371Z" fill="#FF9000"/>
<path d="M257.504 31.8575C257.208 31.8655 256.863 31.8998 256.706 32.1501C256.602 32.3136 256.716 32.5468 256.862 32.6303L256.85 32.6314C257.169 32.8418 257.516 33.0613 257.898 33.0533C258.281 33.0453 258.676 32.6931 258.576 32.3239C258.467 31.9169 257.926 31.846 257.504 31.8575Z" fill="#FF9000"/>
<path d="M278.784 93.7935C278.364 93.5786 277.637 93.8187 277.056 94.3994C276.401 95.0545 276.177 95.8925 276.555 96.2709C276.588 96.304 276.621 96.3314 276.663 96.3555L324.232 123.822L326.405 121.29L278.784 93.7935Z" fill="#FF9000"/>
<path d="M290.673 86.9293C290.252 86.7143 289.526 86.9544 288.945 87.5352C288.29 88.1902 288.066 89.0282 288.445 89.4066C288.477 89.4397 288.511 89.4672 288.552 89.4912L336.121 116.958L338.293 114.426L290.673 86.9293Z" fill="#FF9000"/>
<path d="M368.889 265.57C363.002 265.57 357.195 264.016 352.097 261.071L281.34 220.215C275.89 217.067 272.506 211.204 272.507 204.913C272.508 198.622 275.893 192.761 281.342 189.616L352.098 148.761C357.195 145.818 363.002 144.263 368.889 144.263C374.774 144.263 380.582 145.818 385.679 148.761L456.436 189.618C461.882 192.759 465.27 198.62 465.271 204.913C465.272 211.205 461.887 217.068 456.436 220.215L385.679 261.071C380.582 264.016 374.774 265.57 368.889 265.57Z" stroke="#01A6FF" stroke-width="2" stroke-miterlimit="10" stroke-linecap="round" stroke-linejoin="round"/>
<path d="M285.939 113.389V204.913C285.938 206.339 286.644 207.768 288.056 208.582L358.815 249.439C365.049 253.039 372.729 253.039 378.963 249.439L449.721 208.582C451.132 207.768 451.838 206.342 451.838 204.915V113.389H285.939Z" fill="url(#paint4_linear)"/>
<path d="M285.939 127.075C285.925 128.515 286.63 129.962 288.056 130.785L358.814 171.641C365.048 175.241 372.729 175.241 378.963 171.641L449.721 130.785C451.132 129.97 451.838 128.544 451.838 127.118" stroke="#01A6FF" stroke-width="2" stroke-miterlimit="10" stroke-linecap="round" stroke-linejoin="round"/>
<path d="M402.573 169.449V178.603L426.35 164.874V155.72L402.573 169.449Z" fill="url(#paint5_linear)"/>
<path d="M400.592 168.306L402.573 169.449V178.603L400.592 177.458V168.306Z" fill="#EEEFFD"/>
<path d="M424.368 154.576L426.349 155.72L402.573 169.449L400.591 168.306L424.368 154.576Z" fill="white"/>
<path d="M410.88 168.23C410.127 167.477 408.458 167.923 407.152 169.228C405.848 170.534 405.399 172.203 406.153 172.958C406.906 173.711 408.575 173.263 409.882 171.958C411.188 170.653 411.633 168.984 410.88 168.23Z" stroke="#01A6FF" stroke-width="1.34327" stroke-miterlimit="10" stroke-linecap="round" stroke-linejoin="round"/>
<path d="M422.769 161.366C422.016 160.613 420.346 161.06 419.041 162.365C417.735 163.671 417.288 165.34 418.042 166.093C418.795 166.847 420.464 166.4 421.77 165.094C423.075 163.789 423.522 162.119 422.769 161.366Z" stroke="#01A6FF" stroke-width="1.34327" stroke-miterlimit="10" stroke-linecap="round" stroke-linejoin="round"/>
<path d="M449.72 109.721L378.962 68.8653C372.729 65.2665 365.048 65.2665 358.813 68.8653L288.055 109.721C285.233 111.35 285.233 115.426 288.055 117.056L358.813 157.911C365.048 161.51 372.729 161.51 378.962 157.911L449.72 117.056C452.544 115.426 452.544 111.35 449.72 109.721Z" fill="white"/>
<path d="M297.557 113.389L368.889 72.2022L440.22 113.389L368.889 154.575L297.557 113.389Z" fill="#D4E0F2"/>
<path d="M303.501 116.822L368.888 154.575L434.276 116.822L368.888 79.066L303.501 116.822Z" fill="#FF9000"/>
<path d="M344.643 103.264L389.442 120.128L374.4 91.198" stroke="black" stroke-width="2" stroke-miterlimit="10" stroke-linecap="round" stroke-linejoin="round"/>
<path d="M348.956 102.294C348.956 99.6978 346.851 97.5931 344.255 97.5931C341.659 97.5931 339.553 99.6978 339.553 102.294C339.553 104.89 341.659 106.995 344.255 106.995C346.851 106.995 348.956 104.89 348.956 102.294Z" fill="#01A6FF"/>
<path d="M394.142 120.129C394.142 117.532 392.038 115.428 389.441 115.428C386.845 115.428 384.739 117.532 384.739 120.129C384.739 122.725 386.845 124.83 389.441 124.83C392.038 124.83 394.142 122.725 394.142 120.129Z" fill="#01A6FF"/>
<path d="M343.13 71.0578L372.851 88.2197L360.23 61.1507" stroke="black" stroke-width="2" stroke-miterlimit="10" stroke-linecap="round" stroke-linejoin="round"/>
<path d="M374.401 90.5842L373.171 88.2198L348 99.1199" stroke="black" stroke-width="2" stroke-miterlimit="10" stroke-linecap="round" stroke-linejoin="round"/>
<path d="M377.552 88.2198C377.552 85.6235 375.448 83.5189 372.851 83.5189C370.255 83.5189 368.15 85.6235 368.15 88.2198C368.15 90.816 370.255 92.9207 372.851 92.9207C375.448 92.9207 377.552 90.816 377.552 88.2198Z" fill="#01A6FF"/>
<path d="M376.053 7.02963L400.592 53.8968L374.401 86.3022" stroke="black" stroke-width="2" stroke-miterlimit="10" stroke-linecap="round" stroke-linejoin="round"/>
<path d="M379.534 4.70097C379.534 2.10473 377.429 8.01086e-05 374.833 8.01086e-05C372.237 8.01086e-05 370.131 2.10473 370.131 4.70097C370.131 7.2972 372.237 9.40186 374.833 9.40186C377.429 9.40186 379.534 7.2972 379.534 4.70097Z" fill="#01A6FF"/>
<path d="M405.293 53.8963C405.293 51.3 403.188 49.1954 400.592 49.1954C397.994 49.1954 395.89 51.3 395.89 53.8963C395.89 56.4925 397.994 58.5972 400.592 58.5972C403.188 58.5972 405.293 56.4925 405.293 53.8963Z" fill="#01A6FF"/>
<path d="M363.683 58.4732C363.683 55.877 361.577 53.7723 358.982 53.7723C356.385 53.7723 354.28 55.877 354.28 58.4732C354.28 61.0694 356.385 63.1741 358.982 63.1741C361.577 63.1741 363.683 61.0694 363.683 58.4732Z" fill="#01A6FF"/>
<path d="M359.66 56.1714L373.93 7.76093" stroke="black" stroke-width="2" stroke-miterlimit="10" stroke-linecap="round" stroke-linejoin="round"/>
<path d="M371.845 6.02878L335.942 21.9869L343.13 71.0581" stroke="black" stroke-width="2" stroke-miterlimit="10" stroke-linecap="round" stroke-linejoin="round"/>
<path d="M340.643 21.9873C340.643 19.3911 338.539 17.2865 335.942 17.2865C333.345 17.2865 331.24 19.3911 331.24 21.9873C331.24 24.5836 333.345 26.6882 335.942 26.6882C338.539 26.6882 340.643 24.5836 340.643 21.9873Z" fill="#01A6FF"/>
<path d="M347.831 71.0579C347.831 68.4617 345.726 66.357 343.13 66.357C340.532 66.357 338.428 68.4617 338.428 71.0579C338.428 73.6541 340.532 75.7588 343.13 75.7588C345.726 75.7588 347.831 73.6541 347.831 71.0579Z" fill="#01A6FF"/>
<path d="M253.965 307.945C250.433 307.945 246.949 307.012 243.891 305.246L202.111 281.122C199.419 279.567 197.746 276.67 197.746 273.562C197.746 270.453 199.419 267.556 202.111 266.001L243.891 241.878C246.949 240.111 250.432 239.179 253.965 239.179C257.497 239.179 260.982 240.111 264.04 241.878L305.819 266.001C308.512 267.556 310.184 270.451 310.184 273.562C310.184 276.672 308.512 279.567 305.817 281.122L264.04 305.246C260.981 307.012 257.497 307.945 253.965 307.945Z" stroke="#01A6FF" stroke-width="2" stroke-miterlimit="10" stroke-linecap="round" stroke-linejoin="round"/>
<path d="M204.461 182.034V273.562C204.461 274.239 204.797 274.918 205.469 275.305L247.248 299.429C251.403 301.83 256.524 301.83 260.68 299.429L302.461 275.305C303.132 274.918 303.468 274.239 303.468 273.562H303.501V182.034H204.461Z" fill="url(#paint6_linear)"/>
<path d="M204.461 195.763C204.461 196.442 204.797 197.12 205.468 197.508L247.248 221.632C251.405 224.033 256.524 224.033 260.681 221.632L302.461 197.508C303.132 197.12 303.468 196.442 303.468 195.763" stroke="#01A6FF" stroke-width="2" stroke-miterlimit="10" stroke-linecap="round" stroke-linejoin="round"/>
<path d="M247.248 156.166L205.468 180.29C204.125 181.065 204.125 183.004 205.468 183.779L247.248 207.903C251.404 210.302 256.524 210.302 260.681 207.903L302.46 183.779C303.803 183.004 303.803 181.065 302.46 180.29L260.681 156.166C256.524 153.766 251.404 153.766 247.248 156.166Z" fill="white"/>
<path d="M213.19 182.034L253.964 158.492L294.738 182.034L253.964 205.576L213.19 182.034Z" fill="#D4E0F2"/>
<path d="M216.162 183.75L253.964 205.576L291.765 183.75L253.964 161.924L216.162 183.75Z" fill="#FF9000"/>
<path d="M271.798 226.653V235.806L295.574 222.078V212.924L271.798 226.653Z" fill="url(#paint7_linear)"/>
<path d="M269.815 225.509L271.797 226.653V235.806L269.815 234.662V225.509Z" fill="#EEEFFD"/>
<path d="M293.593 211.779L295.573 212.924L271.798 226.653L269.815 225.509L293.593 211.779Z" fill="white"/>
<path d="M291.994 218.57C291.24 217.816 289.571 218.262 288.264 219.569C286.96 220.874 286.513 222.544 287.266 223.297C288.02 224.05 289.689 223.602 290.994 222.298C292.3 220.992 292.747 219.323 291.994 218.57Z" stroke="#01A6FF" stroke-width="1.34327" stroke-miterlimit="10" stroke-linecap="round" stroke-linejoin="round"/>
<path d="M256.972 164.425C257.076 164.485 257.075 164.585 256.972 164.643L256.901 164.685L255.666 165.402C255.564 165.462 255.394 165.462 255.29 165.402L252.64 163.873C252.535 163.812 252.534 163.714 252.638 163.653L253.851 162.949L253.943 162.895C254.045 162.835 254.217 162.833 254.322 162.895L256.972 164.425Z" fill="#FF9000"/>
<path d="M259.124 165.667C259.228 165.727 259.228 165.827 259.125 165.886L257.82 166.645C257.717 166.704 257.546 166.704 257.442 166.644L256.144 165.894C256.04 165.834 256.04 165.737 256.142 165.676L257.354 164.972L257.447 164.919C257.551 164.858 257.72 164.857 257.824 164.917L259.124 165.667Z" fill="#FF9000"/>
<path d="M261.287 166.916C261.391 166.977 261.39 167.075 261.287 167.135L261.215 167.177L259.98 167.894C259.878 167.953 259.709 167.953 259.605 167.894L258.306 167.144C258.21 167.088 258.201 166.999 258.284 166.939C258.29 166.935 258.296 166.93 258.304 166.926L259.609 166.166C259.711 166.107 259.883 166.107 259.987 166.166L261.287 166.916Z" fill="#FF9000"/>
<path d="M263.525 168.208C263.628 168.268 263.629 168.367 263.526 168.427L262.219 169.185C262.117 169.245 261.946 169.244 261.842 169.185L260.545 168.436C260.44 168.375 260.439 168.278 260.543 168.218L261.755 167.513L261.848 167.458C261.95 167.399 262.121 167.398 262.226 167.458L263.525 168.208Z" fill="#FF9000"/>
<path d="M483.813 307.945C480.28 307.945 476.797 307.012 473.737 305.246L431.959 281.122C429.265 279.567 427.593 276.67 427.593 273.562C427.593 270.453 429.265 267.556 431.959 266.001L473.737 241.878C476.795 240.111 480.28 239.179 483.813 239.179C487.345 239.179 490.828 240.111 493.888 241.878L535.665 266.001C538.359 267.556 540.031 270.451 540.031 273.562C540.031 276.672 538.359 279.567 535.664 281.122L493.886 305.246C490.827 307.012 487.344 307.945 483.813 307.945Z" stroke="#01A6FF" stroke-width="2" stroke-miterlimit="10" stroke-linecap="round" stroke-linejoin="round"/>
<path d="M409.559 169.302C409.138 169.088 408.411 169.327 407.83 169.908C407.175 170.564 406.951 171.402 407.329 171.781C407.363 171.813 407.397 171.84 407.437 171.864L455.007 199.332L457.179 196.8L409.559 169.302Z" fill="#FF9000"/>
<path d="M421.448 162.439C421.028 162.224 420.301 162.463 419.72 163.044C419.065 163.7 418.841 164.538 419.219 164.916C419.252 164.949 419.285 164.977 419.327 165L466.896 192.468L469.069 189.935L421.448 162.439Z" fill="#FF9000"/>
<path d="M427.563 180.889C427.563 179.924 427.02 179.142 426.35 179.142C426.196 179.142 426.051 179.193 425.915 179.268L425.913 179.259L425.879 179.279C425.878 179.28 425.877 179.28 425.877 179.281L324.366 238.026C323.793 238.359 323.086 238.359 322.514 238.027L290.673 219.642C290.252 219.427 289.526 219.667 288.945 220.248C288.29 220.903 288.066 221.741 288.445 222.119C288.477 222.154 288.511 222.18 288.551 222.204L322.841 241.991C322.987 242.08 323.147 242.129 323.316 242.129C323.457 242.129 323.588 242.077 323.713 242.015L323.715 242.031L323.778 241.995C323.784 241.992 323.789 241.989 323.794 241.986L426.818 182.501C426.82 182.5 426.824 182.498 426.826 182.496L426.841 182.488L426.84 182.484C427.265 182.212 427.563 181.603 427.563 180.889Z" fill="#FF9000"/>
<path d="M505.3 91.9422V101.096L529.076 87.3671V78.2134L505.3 91.9422Z" fill="url(#paint8_linear)"/>
<path d="M503.318 90.799L505.3 91.9422V101.096L503.318 99.9516V90.799Z" fill="#EEEFFD"/>
<path d="M527.096 77.0692L529.076 78.2135L505.301 91.9424L503.318 90.7992L527.096 77.0692Z" fill="white"/>
<path d="M525.496 83.8595C524.742 83.1061 523.073 83.552 521.766 84.8587C520.462 86.1642 520.015 87.8333 520.768 88.5867C521.522 89.3401 523.191 88.8919 524.496 87.5875C525.802 86.282 526.249 84.6129 525.496 83.8595Z" stroke="#01A6FF" stroke-width="1.34327" stroke-miterlimit="10" stroke-linecap="round" stroke-linejoin="round"/>
<path d="M439.368 176.013C438.698 176.013 438.155 175.231 438.155 174.266C438.155 173.553 438.453 172.944 438.878 172.672L438.877 172.668L438.892 172.66C438.894 172.658 438.898 172.656 438.9 172.654L541.924 113.17C541.929 113.166 556.043 104.884 556.049 104.881L558.621 106.595C556.906 107.882 543.616 115.17 543.616 115.17L439.841 175.875L439.839 175.877L439.806 175.897L439.803 175.887C439.667 175.963 439.522 176.013 439.368 176.013Z" fill="#FF9000"/>
<path d="M434.309 182.034V273.562C434.309 274.239 434.645 274.918 435.316 275.305L477.097 299.429C481.251 301.83 486.373 301.83 490.527 299.429L532.308 275.305C532.979 274.918 533.315 274.239 533.315 273.562H533.347V182.034H434.309Z" fill="url(#paint9_linear)"/>
<path d="M434.31 195.763C434.31 196.442 434.645 197.12 435.317 197.508L477.097 221.632C481.252 224.033 486.373 224.033 490.528 221.632L532.308 197.508C532.98 197.12 533.315 196.442 533.315 195.763" stroke="#01A6FF" stroke-width="2" stroke-miterlimit="10" stroke-linecap="round" stroke-linejoin="round"/>
<path d="M477.096 156.166L435.316 180.29C433.973 181.065 433.973 183.004 435.316 183.779L477.096 207.903C481.251 210.302 486.372 210.302 490.527 207.903L532.307 183.779C533.651 183.004 533.651 181.065 532.307 180.29L490.527 156.166C486.372 153.766 481.251 153.766 477.096 156.166Z" fill="white"/>
<path d="M443.039 182.034L483.812 158.492L524.586 182.034L483.812 205.576L443.039 182.034Z" fill="#D4E0F2"/>
<path d="M446.012 183.75L483.812 205.576L521.615 183.75L483.812 161.924L446.012 183.75Z" fill="#FF9000"/>
<path d="M524.593 84.8087C524.172 84.5938 523.446 84.8338 522.865 85.4146C522.21 86.0696 521.986 86.9076 522.365 87.286C522.397 87.3192 522.431 87.3466 522.472 87.3706L557.334 107.452C557.334 107.452 558.621 106.594 559.478 106.166C560.335 105.738 524.593 84.8087 524.593 84.8087Z" fill="#FF9000"/>
<path fill-rule="evenodd" clip-rule="evenodd" d="M486.259 35.5498L481.495 38.3009C480.837 38.6799 480.836 39.2968 481.495 39.6758L486.259 42.4255C486.918 42.8086 487.984 42.8086 488.642 42.4255L493.407 39.6758C494.064 39.2968 494.064 38.6799 493.407 38.3009L488.642 35.5498C488.312 35.3586 487.882 35.2644 487.451 35.2644C487.019 35.2644 486.588 35.3586 486.259 35.5498ZM485.067 38.9887L487.451 37.6125L489.832 38.9887L487.451 40.3636L485.067 38.9887ZM494.599 40.3636L489.832 43.1147C489.175 43.4957 489.175 44.1099 489.832 44.4895L494.599 47.2413C495.256 47.6217 496.323 47.6217 496.98 47.2413L501.744 44.4895C502.403 44.1099 502.403 43.4957 501.744 43.1147L496.98 40.3636C496.651 40.1731 496.221 40.0788 495.79 40.0788C495.359 40.0788 494.927 40.1731 494.599 40.3636ZM493.407 43.8018L495.788 42.4255L498.173 43.8018L495.788 45.1766L493.407 43.8018ZM502.937 45.1766L498.173 47.9291C497.514 48.3108 497.514 48.9257 498.173 49.3053L502.937 52.0564C503.594 52.4354 504.662 52.4354 505.32 52.0564L510.085 49.3053C510.742 48.9257 510.742 48.3108 510.085 47.9291L505.32 45.1766C504.99 44.9875 504.56 44.8933 504.128 44.8933C503.697 44.8933 503.266 44.9875 502.937 45.1766ZM501.744 48.6176L504.127 47.2413L506.51 48.6176L504.127 49.9924L501.744 48.6176ZM486.259 45.1766L481.495 47.9291C480.836 48.3108 480.836 48.9257 481.495 49.3053L486.259 52.0564C486.918 52.4354 487.984 52.4354 488.642 52.0564L493.407 49.3053C494.064 48.9257 494.064 48.3108 493.407 47.9291L488.642 45.1766C488.312 44.9875 487.882 44.8933 487.451 44.8933C487.019 44.8933 486.588 44.9875 486.259 45.1766ZM485.067 48.6176L487.451 47.2413L489.832 48.6176L487.451 49.9924L485.067 48.6176ZM494.599 49.9924L489.832 52.7435C489.175 53.1239 489.175 53.7394 489.832 54.1198L494.599 56.8695C495.256 57.2512 496.323 57.2512 496.98 56.8695L501.744 54.1198C502.403 53.7394 502.403 53.1239 501.744 52.7435L496.98 49.9924C496.651 49.8026 496.221 49.7077 495.79 49.7077C495.359 49.7077 494.927 49.8026 494.599 49.9924ZM493.407 53.4313L495.788 52.0564L498.173 53.4313L495.788 54.8075L493.407 53.4313ZM486.259 54.8075L481.495 57.5573C480.836 57.9383 480.836 58.5525 481.495 58.9335L486.259 61.6853C486.918 62.0656 487.984 62.0656 488.642 61.6853L493.407 58.9335C494.064 58.5525 494.064 57.9383 493.407 57.5573L488.642 54.8075C488.312 54.617 487.882 54.5228 487.451 54.5228C487.019 54.5228 486.588 54.617 486.259 54.8075ZM485.067 58.2444L487.451 56.8695L489.832 58.2444L487.451 59.6206L485.067 58.2444Z" fill="black"/>
<path fill-rule="evenodd" clip-rule="evenodd" d="M256.166 40.1183L235.814 51.8688C235.11 52.2764 235.11 52.9323 235.814 53.3377C236.516 53.7445 237.654 53.7445 238.357 53.3377L258.709 41.5878C259.411 41.1832 259.411 40.5266 258.709 40.1183C258.357 39.9156 257.898 39.8149 257.438 39.8149C256.977 39.8149 256.516 39.9156 256.166 40.1183ZM261.254 43.0559L240.9 54.808C240.2 55.2141 240.2 55.8714 240.9 56.276C241.602 56.6822 242.743 56.6822 243.445 56.276L263.797 44.5255C264.501 44.1208 264.501 43.4628 263.797 43.0559C263.445 42.8532 262.986 42.7519 262.526 42.7519C262.065 42.7519 261.604 42.8532 261.254 43.0559ZM266.342 45.9935L245.99 57.7456C245.286 58.1517 245.286 58.809 245.99 59.2137C246.692 59.6198 247.831 59.6198 248.533 59.2137L268.887 47.4631C269.589 47.0584 269.589 46.4004 268.887 45.9935C268.535 45.7909 268.074 45.6895 267.614 45.6895C267.153 45.6895 266.692 45.7909 266.342 45.9935ZM263.797 53.3377L251.078 60.6833C250.374 61.0879 250.374 61.7467 251.078 62.1513C251.78 62.5575 252.919 62.5575 253.621 62.1513L266.342 54.808C267.044 54.4004 267.044 53.7445 266.342 53.3377C265.99 53.1357 265.531 53.0344 265.071 53.0344C264.609 53.0344 264.149 53.1357 263.797 53.3377Z" fill="black"/>
<path fill-rule="evenodd" clip-rule="evenodd" d="M486.681 173.15L478.659 177.782C478.107 178.101 478.107 178.618 478.659 178.939C479.213 179.26 480.111 179.26 480.665 178.939L488.686 174.308C489.241 173.988 489.241 173.469 488.686 173.15C488.409 172.99 488.047 172.91 487.684 172.91C487.32 172.91 486.957 172.99 486.681 173.15ZM489.69 179.517C488.858 179.998 488.858 180.776 489.69 181.255C490.519 181.733 491.866 181.733 492.697 181.255C493.527 180.776 493.527 179.998 492.697 179.517C492.282 179.279 491.737 179.159 491.193 179.159C490.649 179.159 490.104 179.279 489.69 179.517ZM497.71 179.517L489.69 184.149C489.135 184.47 489.135 184.987 489.69 185.307C490.243 185.627 491.141 185.627 491.695 185.307L499.716 180.676C500.269 180.355 500.269 179.838 499.716 179.517C499.439 179.358 499.076 179.279 498.712 179.279C498.349 179.279 497.986 179.358 497.71 179.517ZM466.627 180.098C466.074 180.417 466.074 180.934 466.627 181.255L469.636 182.992L466.627 184.729C466.074 185.048 466.074 185.566 466.627 185.886C467.18 186.205 468.078 186.205 468.633 185.886L471.64 184.149L474.649 185.886C475.203 186.205 476.1 186.205 476.654 185.886C477.208 185.566 477.208 185.048 476.654 184.729L473.646 182.992L476.654 181.255C477.208 180.934 477.208 180.417 476.654 180.098C476.377 179.938 476.014 179.857 475.652 179.857C475.289 179.857 474.926 179.938 474.649 180.098L471.64 181.833L468.633 180.098C468.356 179.937 467.993 179.857 467.63 179.857C467.267 179.857 466.904 179.937 466.627 180.098ZM496.707 183.571C495.877 184.049 495.877 184.827 496.707 185.307C497.539 185.787 498.886 185.787 499.716 185.307C500.547 184.827 500.547 184.049 499.716 183.571C499.3 183.331 498.756 183.211 498.212 183.211C497.668 183.211 497.123 183.331 496.707 183.571ZM481.252 186.085V188.541H476.999C476.215 188.541 475.581 188.908 475.581 189.359C475.581 189.811 476.215 190.178 476.999 190.178H481.252V192.634C481.252 193.086 481.887 193.453 482.671 193.453C483.453 193.453 484.088 193.086 484.088 192.634V190.178H488.343C489.125 190.178 489.761 189.811 489.761 189.359C489.761 188.908 489.125 188.541 488.343 188.541H484.088V186.085C484.088 185.633 483.453 185.266 482.671 185.266C481.887 185.266 481.252 185.633 481.252 186.085Z" fill="black"/>
<path fill-rule="evenodd" clip-rule="evenodd" d="M250.919 175C250.09 175 249.417 175.388 249.417 175.866C249.417 176.346 250.09 176.733 250.919 176.733H264.43V184.534C264.43 185.014 265.103 185.402 265.932 185.402C266.762 185.402 267.433 185.014 267.433 184.534V175.866C267.433 175.388 266.762 175 265.932 175H250.919ZM241 180.727V189.395C241 189.874 241.671 190.261 242.501 190.261H257.515C258.344 190.261 259.016 189.874 259.016 189.395C259.016 188.915 258.344 188.527 257.515 188.527H244.002V180.727C244.002 180.248 243.33 179.859 242.501 179.859C241.671 179.859 241 180.248 241 180.727Z" fill="black"/>
<defs>
<filter id="filter0_d" x="0.459759" y="6.79907" width="738.585" height="489.54" filterUnits="userSpaceOnUse" color-interpolation-filters="sRGB">
<feFlood flood-opacity="0" result="BackgroundImageFix"/>
<feColorMatrix in="SourceAlpha" type="matrix" values="0 0 0 0 0 0 0 0 0 0 0 0 0 0 0 0 0 0 127 0"/>
<feOffset dy="40.8238"/>
<feGaussianBlur stdDeviation="12.7574"/>
<feColorMatrix type="matrix" values="0 0 0 0 0 0 0 0 0 0 0 0 0 0 0 0 0 0 0.3 0"/>
<feBlend mode="normal" in2="BackgroundImageFix" result="effect1_dropShadow"/>
<feBlend mode="normal" in="SourceGraphic" in2="effect1_dropShadow" result="shape"/>
</filter>
<linearGradient id="paint0_linear" x1="369.741" y1="317.641" x2="25.9641" y2="317.641" gradientUnits="userSpaceOnUse">
<stop stop-color="#AABAD6"/>
<stop offset="1" stop-color="#96AAC9"/>
</linearGradient>
<linearGradient id="paint1_linear" x1="438.272" y1="106.628" x2="537.311" y2="106.628" gradientUnits="userSpaceOnUse">
<stop stop-color="white"/>
<stop offset="0.453168" stop-color="#E7E8FC"/>
<stop offset="0.544033" stop-color="#BEC9D5"/>
<stop offset="1" stop-color="#F4F2FB"/>
</linearGradient>
<linearGradient id="paint2_linear" x1="204.461" y1="108.918" x2="303.5" y2="108.918" gradientUnits="userSpaceOnUse">
<stop stop-color="white"/>
<stop offset="0.453168" stop-color="#E7E8FC"/>
<stop offset="0.544033" stop-color="#BEC9D5"/>
<stop offset="1" stop-color="#F4F2FB"/>
</linearGradient>
<linearGradient id="paint3_linear" x1="215.709" y1="108.918" x2="314.748" y2="108.918" gradientUnits="userSpaceOnUse">
<stop stop-color="white"/>
<stop offset="0.453168" stop-color="#E7E8FC"/>
<stop offset="0.544033" stop-color="#BEC9D5"/>
<stop offset="1" stop-color="#F4F2FB"/>
</linearGradient>
<linearGradient id="paint4_linear" x1="285.939" y1="182.764" x2="451.838" y2="182.764" gradientUnits="userSpaceOnUse">
<stop stop-color="white"/>
<stop offset="0.453168" stop-color="#E7E8FC"/>
<stop offset="0.544033" stop-color="#BEC9D5"/>
<stop offset="1" stop-color="#F4F2FB"/>
</linearGradient>
<linearGradient id="paint5_linear" x1="303.772" y1="182.764" x2="469.671" y2="182.764" gradientUnits="userSpaceOnUse">
<stop stop-color="white"/>
<stop offset="0.453168" stop-color="#E7E8FC"/>
<stop offset="0.544033" stop-color="#BEC9D5"/>
<stop offset="1" stop-color="#F4F2FB"/>
</linearGradient>
<linearGradient id="paint6_linear" x1="204.461" y1="241.632" x2="303.5" y2="241.632" gradientUnits="userSpaceOnUse">
<stop stop-color="white"/>
<stop offset="0.453168" stop-color="#E7E8FC"/>
<stop offset="0.544033" stop-color="#BEC9D5"/>
<stop offset="1" stop-color="#F4F2FB"/>
</linearGradient>
<linearGradient id="paint7_linear" x1="210.838" y1="241.632" x2="309.877" y2="241.632" gradientUnits="userSpaceOnUse">
<stop stop-color="white"/>
<stop offset="0.453168" stop-color="#E7E8FC"/>
<stop offset="0.544033" stop-color="#BEC9D5"/>
<stop offset="1" stop-color="#F4F2FB"/>
</linearGradient>
<linearGradient id="paint8_linear" x1="444.34" y1="106.921" x2="543.379" y2="106.921" gradientUnits="userSpaceOnUse">
<stop stop-color="white"/>
<stop offset="0.453168" stop-color="#E7E8FC"/>
<stop offset="0.544033" stop-color="#BEC9D5"/>
<stop offset="1" stop-color="#F4F2FB"/>
</linearGradient>
<linearGradient id="paint9_linear" x1="434.309" y1="241.632" x2="533.348" y2="241.632" gradientUnits="userSpaceOnUse">
<stop stop-color="white"/>
<stop offset="0.453168" stop-color="#E7E8FC"/>
<stop offset="0.544033" stop-color="#BEC9D5"/>
<stop offset="1" stop-color="#F4F2FB"/>
</linearGradient>
</defs>
</svg>
