<svg width="28" height="28" viewBox="0 0 28 28" fill="none" xmlns="http://www.w3.org/2000/svg">
<path d="M18.1722 7.44946H9.82687C8.49485 7.44946 7.41113 8.53318 7.41113 9.8652V18.2105C7.41113 19.5425 8.49485 20.6265 9.82687 20.6265H18.1722C19.5042 20.6265 20.5882 19.5428 20.5882 18.2105V9.8652C20.5882 8.53318 19.5045 7.44946 18.1722 7.44946ZM13.9995 18.3758C11.6078 18.3758 9.66185 16.4299 9.66185 14.0378C9.66185 11.6461 11.6078 9.70018 13.9995 9.70018C16.3915 9.70018 18.3375 11.6461 18.3375 14.0378C18.3375 16.4296 16.3912 18.3758 13.9995 18.3758ZM18.4769 10.597C17.9107 10.597 17.4503 10.1366 17.4503 9.57072C17.4503 9.00485 17.9107 8.54441 18.4769 8.54441C19.0428 8.54441 19.5032 9.00485 19.5032 9.57072C19.5032 10.1366 19.0428 10.597 18.4769 10.597Z" fill="#FF9000"/>
<path d="M13.9991 11.5334C12.6184 11.5334 11.4941 12.6571 11.4941 14.0378C11.4941 15.4191 12.6184 16.5431 13.9991 16.5431C15.3804 16.5431 16.5037 15.4191 16.5037 14.0378C16.5037 12.6574 15.3801 11.5334 13.9991 11.5334Z" fill="#FF9000"/>
<path d="M14 0C6.26832 0 0 6.26832 0 14C0 21.7317 6.26832 28 14 28C21.7317 28 28 21.7317 28 14C28 6.26832 21.7317 0 14 0ZM22.4214 18.2104C22.4214 20.5534 20.5157 22.4591 18.1726 22.4591H9.82736C7.48461 22.4591 5.5786 20.5534 5.5786 18.2104V9.8651C5.5786 7.52236 7.48461 5.61635 9.82736 5.61635H18.1726C20.5157 5.61635 22.4214 7.52236 22.4214 9.8651V18.2104Z" fill="#FF9000"/>
</svg>
