<svg width="37" height="38" viewBox="0 0 37 38" fill="none" xmlns="http://www.w3.org/2000/svg">
<path fill-rule="evenodd" clip-rule="evenodd" d="M15.2907 1L32.1914 1C32.1914 1 32.1914 5.04659 27.6687 6.95095H15.2907C15.2907 6.95095 11.4821 7.54598 11.6011 11.1166H19.5754C24.9633 11.1166 24.8307 15.027 24.7872 16.309C24.7788 16.5562 24.7737 16.7057 24.8122 16.7105C24.8505 16.7153 24.8642 16.5736 24.8874 16.3325V16.3325V16.3325V16.3325C25.0085 15.0756 25.3898 11.1166 30.8822 11.1166C30.8822 11.1166 36 11.1166 36 16.7105C36 22.3044 29.573 22.6614 29.573 22.6614C29.692 24.8037 28.3828 25.3989 28.3828 25.3989C28.3828 25.3989 30.6441 26.113 31.2392 28.9695C31.8343 31.8259 30.4061 37.1818 21.4797 37.3008C11.3631 37.4356 9.33976 28.2553 9.33976 28.2553V22.6614H7.31644V37.3008H4.93606V22.6614C4.93606 22.6614 1.16203 21.1109 1.00843 17.4246C0.770396 11.7117 5.65017 10.9976 5.65017 10.9976C5.65017 10.9976 5.65017 1 15.2907 1ZM5.53114 13.4969H15.0527C15.0527 13.4969 13.7434 14.8062 13.8625 17.3056C13.9815 19.805 15.7668 23.0185 19.9324 22.7804C24.0981 22.5424 24.6932 19.0908 24.6932 19.0908C24.6932 19.0908 26.5513 20.4435 26.8355 21.8283C27.1202 23.2153 25.8834 24.9228 25.8834 24.9228C25.8834 24.9228 23.503 24.3793 18.7422 25.2799C13.9815 26.1805 13.1483 30.7547 13.1483 30.7547C12.1457 29.912 11.6011 27.7792 11.6011 27.7792V15.6393H9.10171V20.4H5.53114C5.53114 20.4 3.26979 19.448 3.26979 16.8295C3.26979 14.2111 5.53114 13.4969 5.53114 13.4969ZM33.8577 16.8295C33.8577 18.7357 32.3123 20.281 30.4061 20.281C28.689 20.281 27.2648 19.0272 26.999 17.3851C27.2007 18.3589 28.0633 19.0908 29.0969 19.0908C30.28 19.0908 31.2392 18.1317 31.2392 16.9485C31.2392 15.7653 30.28 14.8062 29.0969 14.8062C27.9315 14.8062 26.9834 15.7367 26.9552 16.8952C26.9548 16.8734 26.9546 16.8514 26.9546 16.8295C26.9546 14.9232 28.4999 13.3779 30.4061 13.3779C32.3123 13.3779 33.8577 14.9232 33.8577 16.8295ZM19.2183 20.5191C21.1246 20.5191 22.6699 18.9738 22.6699 17.0675C22.6699 15.1613 21.1246 13.616 19.2183 13.616C17.5006 13.616 16.0759 14.8708 15.811 16.5138C16.0118 15.539 16.8749 14.8062 17.9092 14.8062C19.0923 14.8062 20.0515 15.7653 20.0515 16.9485C20.0515 18.1317 19.0923 19.0908 17.9092 19.0908C16.7431 19.0908 15.7947 18.1593 15.7674 16.9998C15.767 17.0223 15.7668 17.0449 15.7668 17.0675C15.7668 18.9738 17.3121 20.5191 19.2183 20.5191ZM17.9091 29.8025H26.7165C26.7165 29.8025 25.6453 32.659 22.4318 32.659C19.2183 32.659 17.9091 29.8025 17.9091 29.8025Z" fill="#01A6FF"/>
<path d="M32.1914 1H32.3104V0.880981L32.1914 0.880981V1ZM15.2907 1V1.11902V1ZM27.6687 6.95095V7.06997H27.6927L27.7149 7.06064L27.6687 6.95095ZM15.2907 6.95095V6.83193H15.2815L15.2723 6.83335L15.2907 6.95095ZM11.6011 11.1166L11.4822 11.1206L11.486 11.2356H11.6011V11.1166ZM24.7872 16.309L24.6682 16.3049V16.3049L24.7872 16.309ZM24.8122 16.7105L24.827 16.5924H24.827L24.8122 16.7105ZM24.8874 16.3325L25.0064 16.344V16.3325H24.8874ZM24.8874 16.3325L24.7684 16.321V16.3325H24.8874ZM29.573 22.6614L29.5664 22.5426L29.4475 22.5492L29.4541 22.6681L29.573 22.6614ZM28.3828 25.3989L28.3335 25.2905L28.0511 25.4189L28.3469 25.5124L28.3828 25.3989ZM21.4797 37.3008L21.4813 37.4198L21.4797 37.3008ZM9.33976 28.2553H9.22074V28.2683L9.22353 28.281L9.33976 28.2553ZM9.33976 22.6614H9.45878V22.5424H9.33976V22.6614ZM7.31644 22.6614V22.5424H7.19742V22.6614H7.31644ZM7.31644 37.3008V37.4198H7.43546V37.3008H7.31644ZM4.93606 37.3008H4.81704V37.4198H4.93606V37.3008ZM4.93606 22.6614H5.05508V22.5817L4.98129 22.5514L4.93606 22.6614ZM1.00843 17.4246L1.12735 17.4197L1.00843 17.4246ZM5.65017 10.9976L5.66741 11.1154L5.76919 11.1005V10.9976H5.65017ZM15.0527 13.4969L15.1368 13.5811L15.34 13.3779H15.0527V13.4969ZM5.53114 13.4969V13.3779H5.51279L5.4953 13.3835L5.53114 13.4969ZM13.8625 17.3056L13.7436 17.3112L13.8625 17.3056ZM19.9324 22.7804L19.9392 22.8993L19.9324 22.7804ZM24.6932 19.0908L24.7632 18.9946L24.6084 18.8819L24.5759 19.0706L24.6932 19.0908ZM26.8355 21.8283L26.9521 21.8043L26.8355 21.8283ZM25.8834 24.9228L25.8569 25.0388L25.9336 25.0563L25.9798 24.9926L25.8834 24.9228ZM13.1483 30.7547L13.0718 30.8458L13.2287 30.9777L13.2654 30.776L13.1483 30.7547ZM11.6011 27.7792H11.4821V27.7942L11.4858 27.8087L11.6011 27.7792ZM11.6011 15.6393H11.7201V15.5203H11.6011V15.6393ZM9.10171 15.6393V15.5203H8.98269V15.6393H9.10171ZM9.10171 20.4V20.5191H9.22073V20.4H9.10171ZM5.53114 20.4L5.48496 20.5097L5.50711 20.5191H5.53114V20.4ZM26.999 17.3851L27.1156 17.361L26.8815 17.4041L26.999 17.3851ZM26.9552 16.8952L26.8362 16.8974L27.0742 16.8981L26.9552 16.8952ZM15.811 16.5138L15.6934 16.4949L15.9275 16.5378L15.811 16.5138ZM15.7674 16.9998L15.8864 16.997L15.6484 16.9975L15.7674 16.9998ZM26.7165 29.8025L26.828 29.8443L26.8883 29.6835H26.7165V29.8025ZM17.9091 29.8025V29.6835H17.7236L17.8009 29.8521L17.9091 29.8025ZM32.1914 0.880981L15.2907 0.880984V1.11902L32.1914 1.11902V0.880981ZM27.7149 7.06064C30.0072 6.09541 31.1584 4.58393 31.7345 3.31039C32.0221 2.67467 32.166 2.09934 32.238 1.68229C32.274 1.4737 32.2921 1.30447 32.3012 1.18676C32.3058 1.1279 32.3081 1.0819 32.3092 1.05027C32.3098 1.03446 32.3101 1.02224 32.3103 1.0138C32.3103 1.00957 32.3104 1.0063 32.3104 1.00399C32.3104 1.00284 32.3104 1.00193 32.3104 1.00126C32.3104 1.00093 32.3104 1.00066 32.3104 1.00045C32.3104 1.00034 32.3104 1.00023 32.3104 1.00018C32.3104 1.00008 32.3104 1 32.1914 1C32.0724 1 32.0724 0.99995 32.0724 0.999916C32.0724 0.999925 32.0724 0.999906 32.0724 0.999924C32.0724 0.99996 32.0724 1.00006 32.0724 1.00022C32.0724 1.00053 32.0724 1.00109 32.0724 1.00189C32.0723 1.00349 32.0723 1.00604 32.0723 1.00954C32.0721 1.01653 32.0719 1.02726 32.0714 1.04155C32.0703 1.07013 32.0682 1.11292 32.0639 1.16843C32.0553 1.27946 32.0381 1.44125 32.0034 1.64178C31.9341 2.04297 31.7954 2.59831 31.5176 3.21228C30.9631 4.43813 29.8529 5.90212 27.6225 6.84126L27.7149 7.06064ZM15.2907 7.06997H27.6687V6.83193H15.2907V7.06997ZM11.7201 11.1126C11.6623 9.38014 12.5533 8.37415 13.4651 7.79527C13.9225 7.50482 14.3847 7.32271 14.7331 7.21326C14.9071 7.15861 15.0522 7.12225 15.1533 7.09964C15.2038 7.08833 15.2433 7.08047 15.2699 7.07548C15.2832 7.07298 15.2933 7.0712 15.2999 7.07007C15.3032 7.0695 15.3056 7.0691 15.3072 7.06885C15.3079 7.06872 15.3085 7.06863 15.3088 7.06858C15.309 7.06856 15.3091 7.06854 15.3091 7.06853C15.3091 7.06853 15.3091 7.06853 15.3091 7.06853C15.3091 7.06853 15.3091 7.06854 15.2907 6.95095C15.2723 6.83335 15.2723 6.83337 15.2722 6.83338C15.2721 6.83339 15.272 6.8334 15.2719 6.83342C15.2718 6.83345 15.2715 6.83348 15.2712 6.83353C15.2706 6.83363 15.2698 6.83376 15.2687 6.83394C15.2666 6.83428 15.2636 6.83479 15.2597 6.83546C15.2519 6.83679 15.2406 6.83879 15.226 6.84153C15.1969 6.84699 15.1547 6.8554 15.1013 6.86734C14.9946 6.89121 14.843 6.92924 14.6618 6.98616C14.2998 7.09987 13.8173 7.28968 13.3375 7.59432C12.3747 8.20561 11.4209 9.28246 11.4822 11.1206L11.7201 11.1126ZM19.5754 10.9976H11.6011V11.2356H19.5754V10.9976ZM24.9061 16.313C24.9278 15.6739 24.9749 14.3442 24.322 13.1741C23.6616 11.9906 22.3025 10.9976 19.5754 10.9976V11.2356C22.2362 11.2356 23.5047 12.1979 24.1141 13.29C24.731 14.3956 24.69 15.6621 24.6682 16.3049L24.9061 16.313ZM24.827 16.5924C24.8649 16.5971 24.8876 16.62 24.8972 16.6337C24.9054 16.6453 24.9069 16.6537 24.9061 16.6507C24.9047 16.6453 24.9023 16.6292 24.9011 16.5963C24.8988 16.5327 24.9019 16.4386 24.9061 16.313L24.6682 16.3049C24.6641 16.4266 24.6605 16.5309 24.6632 16.605C24.6645 16.641 24.6675 16.6786 24.6757 16.7103C24.6797 16.7259 24.6871 16.7487 24.7023 16.7704C24.719 16.7941 24.7499 16.8227 24.7975 16.8286L24.827 16.5924ZM24.7689 16.3211C24.7571 16.4438 24.7483 16.5341 24.7382 16.5937C24.7357 16.608 24.7334 16.6192 24.7313 16.6277C24.7302 16.6319 24.7293 16.635 24.7286 16.6373C24.7278 16.6396 24.7274 16.6406 24.7275 16.6404C24.7275 16.6404 24.7284 16.6383 24.7304 16.635C24.7324 16.6319 24.7365 16.6259 24.7435 16.6193C24.7596 16.604 24.7893 16.5877 24.827 16.5924L24.7975 16.8286C24.8447 16.8345 24.8832 16.8149 24.9075 16.7918C24.9284 16.7719 24.9399 16.749 24.9462 16.7343C24.9592 16.7042 24.967 16.6677 24.9728 16.6338C24.9848 16.5634 24.9945 16.4624 25.0059 16.344L24.7689 16.3211ZM24.7684 16.3325V16.3325H25.0064V16.3325H24.7684ZM24.7684 16.3325V16.3325H25.0064V16.3325H24.7684ZM24.7684 16.3325V16.3325H25.0064V16.3325H24.7684ZM30.8822 10.9976C28.103 10.9976 26.5953 12.0018 25.7728 13.1853C24.9564 14.3601 24.8295 15.6926 24.7689 16.3211L25.0059 16.3439C25.0664 15.7155 25.1907 14.4401 25.9683 13.3211C26.7399 12.2109 28.169 11.2356 30.8822 11.2356V10.9976ZM36.119 16.7105C36.119 15.2933 35.7946 14.2223 35.302 13.4146C34.8094 12.607 34.1528 12.0692 33.4982 11.7114C32.8442 11.354 32.1915 11.1759 31.7032 11.0869C31.4587 11.0424 31.2548 11.0201 31.1114 11.0089C31.0396 11.0033 30.983 11.0005 30.944 10.999C30.9245 10.9983 30.9094 10.998 30.899 10.9978C30.8938 10.9977 30.8897 10.9976 30.8869 10.9976C30.8855 10.9976 30.8844 10.9976 30.8836 10.9976C30.8832 10.9976 30.8829 10.9976 30.8827 10.9976C30.8826 10.9976 30.8824 10.9976 30.8824 10.9976C30.8823 10.9976 30.8822 10.9976 30.8822 11.1166C30.8822 11.2356 30.8821 11.2356 30.8821 11.2356C30.8821 11.2356 30.8821 11.2356 30.8822 11.2356C30.8822 11.2356 30.8824 11.2356 30.8826 11.2356C30.8831 11.2356 30.8838 11.2356 30.8849 11.2356C30.887 11.2357 30.8903 11.2357 30.8948 11.2358C30.9037 11.2359 30.9174 11.2363 30.9353 11.2369C30.9713 11.2382 31.0246 11.2409 31.0928 11.2462C31.2293 11.2569 31.4252 11.2782 31.6605 11.3211C32.1317 11.407 32.7585 11.5784 33.384 11.9203C34.0089 12.2618 34.6317 12.7728 35.0987 13.5385C35.5656 14.304 35.881 15.3308 35.881 16.7105H36.119ZM29.573 22.6614C29.5796 22.7803 29.5797 22.7803 29.5798 22.7803C29.5798 22.7803 29.5799 22.7803 29.5801 22.7803C29.5803 22.7802 29.5807 22.7802 29.5812 22.7802C29.5821 22.7801 29.5834 22.7801 29.5851 22.78C29.5884 22.7797 29.5933 22.7794 29.5997 22.779C29.6124 22.7781 29.631 22.7767 29.6552 22.7747C29.7035 22.7706 29.7738 22.7639 29.8631 22.7534C30.0415 22.7324 30.2958 22.6961 30.6006 22.6349C31.2097 22.5127 32.0236 22.2906 32.8389 21.8905C34.4728 21.0887 36.119 19.5662 36.119 16.7105H35.881C35.881 19.4487 34.3136 20.9017 32.7341 21.6768C31.9426 22.0652 31.1497 22.282 30.5538 22.4016C30.2561 22.4613 30.0082 22.4966 29.8352 22.517C29.7487 22.5272 29.681 22.5336 29.6351 22.5375C29.6122 22.5394 29.5947 22.5407 29.5832 22.5415C29.5774 22.5419 29.573 22.5422 29.5702 22.5424C29.5688 22.5425 29.5678 22.5425 29.5671 22.5426C29.5668 22.5426 29.5666 22.5426 29.5665 22.5426C29.5664 22.5426 29.5664 22.5426 29.5663 22.5426C29.5664 22.5426 29.5664 22.5426 29.573 22.6614ZM28.3828 25.3989C28.432 25.5072 28.4321 25.5072 28.4322 25.5072C28.4322 25.5071 28.4323 25.5071 28.4324 25.5071C28.4325 25.507 28.4327 25.5069 28.4329 25.5069C28.4332 25.5067 28.4337 25.5065 28.4342 25.5062C28.4352 25.5058 28.4365 25.5051 28.4382 25.5043C28.4415 25.5028 28.446 25.5005 28.4516 25.4977C28.4628 25.4919 28.4786 25.4836 28.4982 25.4723C28.5373 25.4498 28.5918 25.4157 28.6562 25.3682C28.785 25.2731 28.9536 25.1238 29.1177 24.9049C29.4475 24.4652 29.7528 23.753 29.6918 22.6548L29.4541 22.6681C29.5121 23.7121 29.2224 24.3687 28.9273 24.7621C28.779 24.9598 28.6278 25.0932 28.5148 25.1767C28.4583 25.2184 28.4115 25.2476 28.3795 25.266C28.3635 25.2752 28.3512 25.2817 28.3433 25.2857C28.3394 25.2877 28.3366 25.2891 28.3349 25.2899C28.3341 25.2903 28.3335 25.2905 28.3333 25.2906C28.3332 25.2907 28.3331 25.2907 28.3332 25.2907C28.3332 25.2907 28.3332 25.2907 28.3333 25.2906C28.3333 25.2906 28.3334 25.2906 28.3334 25.2906C28.3335 25.2906 28.3335 25.2905 28.3828 25.3989ZM31.3558 28.9452C31.052 27.487 30.3214 26.5719 29.6643 26.0217C29.3362 25.7471 29.027 25.5638 28.799 25.4488C28.685 25.3913 28.5911 25.3509 28.5252 25.3246C28.4922 25.3114 28.4662 25.3018 28.4481 25.2954C28.4391 25.2922 28.432 25.2898 28.4271 25.2882C28.4246 25.2873 28.4226 25.2867 28.4212 25.2862C28.4205 25.286 28.42 25.2858 28.4195 25.2857C28.4193 25.2856 28.4191 25.2855 28.419 25.2855C28.4189 25.2855 28.4188 25.2854 28.4188 25.2854C28.4187 25.2854 28.4186 25.2854 28.3828 25.3989C28.3469 25.5124 28.3469 25.5124 28.3469 25.5123C28.3469 25.5123 28.3468 25.5123 28.3468 25.5123C28.3468 25.5123 28.3468 25.5123 28.3469 25.5124C28.347 25.5124 28.3472 25.5125 28.3476 25.5126C28.3484 25.5128 28.3497 25.5133 28.3515 25.5139C28.3552 25.5151 28.3609 25.517 28.3685 25.5198C28.3839 25.5252 28.407 25.5337 28.4371 25.5457C28.4971 25.5696 28.5846 25.6073 28.6918 25.6614C28.9065 25.7696 29.1998 25.9433 29.5115 26.2043C30.1338 26.7253 30.8314 27.5954 31.1227 28.9937L31.3558 28.9452ZM21.4813 37.4198C25.9681 37.36 28.5951 35.9829 30.0222 34.237C31.447 32.4939 31.6594 30.4026 31.3558 28.9452L31.1227 28.9937C31.4142 30.3927 31.21 32.4076 29.8379 34.0863C28.468 35.7622 25.9177 37.1226 21.4781 37.1818L21.4813 37.4198ZM9.33976 28.2553C9.22353 28.281 9.22355 28.2811 9.22358 28.2812C9.2236 28.2813 9.22364 28.2814 9.22368 28.2816C9.22376 28.282 9.22387 28.2825 9.22401 28.2831C9.2243 28.2844 9.22471 28.2862 9.22525 28.2886C9.22634 28.2933 9.22794 28.3002 9.23009 28.3093C9.23439 28.3273 9.24086 28.3537 9.24969 28.3881C9.26734 28.4567 9.29443 28.5567 9.33244 28.6837C9.40846 28.9376 9.52822 29.2992 9.70366 29.7323C10.0544 30.5983 10.6285 31.7518 11.522 32.9017C13.3116 35.2046 16.3801 37.4878 21.4813 37.4198L21.4781 37.1818C16.4627 37.2486 13.4612 35.0091 11.71 32.7556C10.8331 31.6272 10.269 30.4941 9.92429 29.643C9.75197 29.2176 9.63463 28.863 9.56048 28.6154C9.5234 28.4916 9.49714 28.3945 9.48022 28.3288C9.47176 28.2959 9.46563 28.2708 9.46165 28.2541C9.45966 28.2457 9.45821 28.2395 9.45728 28.2354C9.45681 28.2334 9.45647 28.2319 9.45625 28.2309C9.45615 28.2304 9.45607 28.2301 9.45603 28.2299C9.45601 28.2298 9.456 28.2298 9.45599 28.2297C9.45598 28.2297 9.45599 28.2297 9.33976 28.2553ZM9.22074 22.6614V28.2553H9.45878V22.6614H9.22074ZM7.31644 22.7805H9.33976V22.5424H7.31644V22.7805ZM7.43546 37.3008V22.6614H7.19742V37.3008H7.43546ZM4.93606 37.4198H7.31644V37.1817H4.93606V37.4198ZM4.81704 22.6614V37.3008H5.05508V22.6614H4.81704ZM0.889518 17.4296C0.968127 19.3162 1.97386 20.6534 2.95115 21.5147C3.44001 21.9455 3.92362 22.2591 4.28505 22.465C4.46587 22.568 4.61642 22.6443 4.72216 22.695C4.77504 22.7203 4.81674 22.7393 4.84545 22.752C4.8598 22.7583 4.87091 22.7631 4.87855 22.7664C4.88237 22.768 4.88532 22.7692 4.88738 22.7701C4.88841 22.7705 4.88921 22.7709 4.88979 22.7711C4.89007 22.7712 4.89031 22.7713 4.89048 22.7714C4.89057 22.7714 4.89065 22.7715 4.8907 22.7715C4.89077 22.7715 4.89083 22.7715 4.93606 22.6614C4.98129 22.5514 4.98132 22.5514 4.98133 22.5514C4.98132 22.5514 4.98132 22.5514 4.98129 22.5514C4.98124 22.5513 4.98112 22.5513 4.98096 22.5512C4.98062 22.5511 4.98005 22.5508 4.97927 22.5505C4.97769 22.5499 4.97523 22.5488 4.9719 22.5474C4.96525 22.5446 4.95515 22.5402 4.94182 22.5343C4.91518 22.5225 4.87564 22.5046 4.82503 22.4803C4.72378 22.4318 4.57828 22.3581 4.40289 22.2582C4.05189 22.0582 3.58239 21.7537 3.10854 21.3361C2.16042 20.5006 1.20234 19.2194 1.12735 17.4197L0.889518 17.4296ZM5.65017 10.9976C5.63294 10.8798 5.63285 10.8798 5.63275 10.8799C5.63269 10.8799 5.63257 10.8799 5.63245 10.8799C5.63221 10.8799 5.6319 10.88 5.63152 10.88C5.63075 10.8802 5.62968 10.8803 5.62833 10.8805C5.62562 10.8809 5.62175 10.8816 5.61676 10.8824C5.60679 10.884 5.59233 10.8865 5.5737 10.89C5.53644 10.8969 5.48245 10.9077 5.4142 10.9235C5.27772 10.955 5.08398 11.0063 4.85268 11.0859C4.39042 11.245 3.77604 11.518 3.16863 11.9735C1.94859 12.8886 0.768789 14.5321 0.889518 17.4296L1.12735 17.4197C1.01004 14.6042 2.15111 13.0342 3.31145 12.164C3.89423 11.7269 4.48492 11.4643 4.93017 11.311C5.15263 11.2344 5.33827 11.1853 5.46772 11.1554C5.53243 11.1405 5.58305 11.1304 5.61716 11.124C5.6342 11.1209 5.64712 11.1186 5.6556 11.1172C5.65984 11.1165 5.66297 11.116 5.66495 11.1157C5.66594 11.1156 5.66664 11.1155 5.66705 11.1154C5.66726 11.1154 5.66739 11.1154 5.66745 11.1153C5.66748 11.1153 5.66747 11.1153 5.66748 11.1153C5.66745 11.1153 5.66741 11.1154 5.65017 10.9976ZM15.2907 0.880984C12.8588 0.880984 11.0271 1.51187 9.64959 2.46423C8.27304 3.41592 7.3572 4.68364 6.74803 5.94711C6.13903 7.21021 5.83513 8.47181 5.68329 9.41658C5.60733 9.88926 5.5693 10.2834 5.55026 10.5598C5.54074 10.6981 5.53597 10.8069 5.53357 10.8815C5.53237 10.9188 5.53177 10.9475 5.53146 10.9671C5.53131 10.9768 5.53123 10.9843 5.53119 10.9894C5.53117 10.992 5.53116 10.994 5.53116 10.9953C5.53116 10.996 5.53115 10.9965 5.53115 10.9969C5.53115 10.9971 5.53115 10.9973 5.53115 10.9974C5.53115 10.9975 5.53115 10.9976 5.65017 10.9976C5.76919 10.9976 5.76919 10.9976 5.76919 10.9976C5.76919 10.9975 5.76919 10.9975 5.76919 10.9974C5.76919 10.9971 5.76919 10.9968 5.7692 10.9962C5.7692 10.9952 5.76921 10.9935 5.76922 10.9913C5.76926 10.9868 5.76933 10.9799 5.76947 10.9708C5.76976 10.9525 5.77033 10.9251 5.77148 10.8891C5.77379 10.8173 5.77843 10.7113 5.78774 10.5762C5.80636 10.3059 5.84365 9.91895 5.91832 9.45435C6.06774 8.52458 6.36638 7.28678 6.96245 6.05049C7.55834 4.81456 8.45011 3.58288 9.78496 2.66003C11.1188 1.73783 12.9023 1.11902 15.2907 1.11902V0.880984ZM15.0527 13.3779H5.53114V13.616H15.0527V13.3779ZM13.9813 17.2999C13.9229 16.0728 14.215 15.1405 14.5199 14.5162C14.6724 14.2038 14.8283 13.9684 14.9453 13.8118C15.0038 13.7335 15.0525 13.675 15.0862 13.6364C15.1031 13.6172 15.1162 13.6029 15.1248 13.5937C15.1291 13.589 15.1324 13.5857 15.1344 13.5836C15.1354 13.5825 15.1361 13.5818 15.1365 13.5814C15.1367 13.5812 15.1369 13.5811 15.1369 13.581C15.1369 13.581 15.1369 13.581 15.1369 13.581C15.1369 13.581 15.1369 13.581 15.1369 13.581C15.1368 13.5811 15.1368 13.5811 15.0527 13.4969C14.9685 13.4128 14.9684 13.4128 14.9684 13.4129C14.9684 13.4129 14.9683 13.413 14.9683 13.413C14.9682 13.4131 14.9681 13.4132 14.9679 13.4134C14.9677 13.4136 14.9673 13.414 14.9669 13.4144C14.966 13.4153 14.9649 13.4165 14.9634 13.418C14.9605 13.421 14.9564 13.4253 14.9511 13.4309C14.9407 13.442 14.9257 13.4583 14.907 13.4797C14.8696 13.5226 14.817 13.5858 14.7546 13.6693C14.6299 13.8363 14.4659 14.0844 14.306 14.4117C13.986 15.0669 13.683 16.0389 13.7436 17.3112L13.9813 17.2999ZM19.9256 22.6616C17.8782 22.7786 16.4256 22.0486 15.4682 20.9897C14.5075 19.9271 14.0398 18.5264 13.9813 17.2999L13.7436 17.3112C13.8042 18.5841 14.2886 20.0399 15.2917 21.1493C16.2981 22.2625 17.821 23.0203 19.9392 22.8993L19.9256 22.6616ZM24.6932 19.0908C24.5759 19.0706 24.5759 19.0706 24.5759 19.0705C24.5759 19.0705 24.5759 19.0705 24.5759 19.0705C24.5759 19.0705 24.5759 19.0706 24.5759 19.0707C24.5758 19.0709 24.5758 19.0714 24.5756 19.072C24.5754 19.0733 24.575 19.0754 24.5745 19.0783C24.5734 19.0841 24.5716 19.0931 24.5691 19.105C24.564 19.1287 24.556 19.1643 24.5442 19.2099C24.5207 19.3013 24.4823 19.4332 24.4235 19.5926C24.3056 19.9117 24.1061 20.3398 23.7797 20.775C23.1296 21.6418 21.9708 22.5447 19.9256 22.6616L19.9392 22.8993C22.0598 22.7781 23.2813 21.8363 23.9701 20.9178C24.3133 20.4603 24.5229 20.0106 24.6468 19.6751C24.7088 19.5072 24.7494 19.3676 24.7747 19.2693C24.7874 19.2201 24.7962 19.1813 24.8019 19.1544C24.8048 19.1409 24.8068 19.1304 24.8082 19.1231C24.8089 19.1195 24.8095 19.1167 24.8098 19.1146C24.81 19.1136 24.8102 19.1128 24.8103 19.1122C24.8103 19.1119 24.8104 19.1117 24.8104 19.1115C24.8104 19.1114 24.8104 19.1113 24.8104 19.1112C24.8105 19.1111 24.8105 19.1111 24.6932 19.0908ZM26.9521 21.8043C26.8027 21.0762 26.2455 20.371 25.7429 19.857C25.4893 19.5978 25.2449 19.3826 25.064 19.2323C24.9735 19.1571 24.8987 19.0979 24.8464 19.0575C24.8202 19.0373 24.7996 19.0217 24.7855 19.0111C24.7784 19.0058 24.773 19.0018 24.7692 18.999C24.7673 18.9976 24.7659 18.9966 24.7649 18.9958C24.7644 18.9955 24.764 18.9952 24.7637 18.995C24.7636 18.9949 24.7635 18.9948 24.7634 18.9947C24.7634 18.9947 24.7633 18.9947 24.7633 18.9947C24.7633 18.9946 24.7632 18.9946 24.6932 19.0908C24.6231 19.1871 24.6231 19.187 24.6231 19.187C24.6231 19.1871 24.6231 19.1871 24.6231 19.1871C24.6232 19.1871 24.6232 19.1871 24.6233 19.1872C24.6235 19.1873 24.6238 19.1875 24.6242 19.1878C24.625 19.1884 24.6262 19.1893 24.6278 19.1905C24.6311 19.193 24.6362 19.1967 24.6428 19.2016C24.656 19.2115 24.6756 19.2264 24.7008 19.2458C24.7512 19.2848 24.8238 19.3421 24.9119 19.4154C25.0883 19.5619 25.3262 19.7715 25.5727 20.0235C26.0702 20.5321 26.5842 21.1955 26.7189 21.8522L26.9521 21.8043ZM25.8834 24.9228C25.9798 24.9926 25.9798 24.9926 25.9798 24.9925C25.9798 24.9925 25.9799 24.9925 25.9799 24.9924C25.9799 24.9923 25.98 24.9922 25.9801 24.9921C25.9803 24.9918 25.9806 24.9914 25.9809 24.991C25.9816 24.99 25.9826 24.9886 25.9839 24.9869C25.9864 24.9833 25.99 24.9782 25.9947 24.9715C26.0041 24.9581 26.0176 24.9385 26.0347 24.9132C26.0688 24.8625 26.1169 24.789 26.1736 24.6965C26.287 24.5118 26.4352 24.2506 26.5745 23.945C26.8508 23.3389 27.1023 22.5361 26.9521 21.8043L26.7189 21.8522C26.8534 22.5074 26.6289 23.2519 26.3579 23.8463C26.2236 24.1409 26.0804 24.3933 25.9707 24.5721C25.916 24.6613 25.8697 24.732 25.8372 24.7802C25.821 24.8043 25.8083 24.8227 25.7997 24.835C25.7954 24.8412 25.7921 24.8458 25.79 24.8488C25.7889 24.8503 25.7881 24.8514 25.7876 24.8521C25.7874 24.8524 25.7872 24.8527 25.7871 24.8528C25.787 24.8529 25.787 24.8529 25.787 24.853C25.787 24.853 25.787 24.853 25.787 24.853C25.787 24.853 25.787 24.8529 25.8834 24.9228ZM18.7644 25.3968C21.1368 24.948 22.9139 24.8595 24.0958 24.8826C24.6867 24.8942 25.1289 24.9337 25.4224 24.97C25.5692 24.9882 25.6787 25.0056 25.7512 25.0184C25.7874 25.0248 25.8143 25.03 25.8319 25.0335C25.8407 25.0353 25.8472 25.0367 25.8514 25.0376C25.8534 25.038 25.8549 25.0384 25.8559 25.0386C25.8563 25.0387 25.8566 25.0387 25.8568 25.0388C25.8569 25.0388 25.8569 25.0388 25.857 25.0388C25.857 25.0388 25.8569 25.0388 25.8569 25.0388C25.8569 25.0388 25.8569 25.0388 25.8834 24.9228C25.9099 24.8067 25.9098 24.8067 25.9098 24.8067C25.9097 24.8067 25.9096 24.8067 25.9096 24.8067C25.9094 24.8066 25.9093 24.8066 25.9091 24.8066C25.9087 24.8065 25.9081 24.8063 25.9074 24.8062C25.906 24.8059 25.904 24.8054 25.9015 24.8049C25.8963 24.8038 25.8889 24.8022 25.8791 24.8002C25.8595 24.7963 25.8306 24.7907 25.7924 24.784C25.7161 24.7705 25.6025 24.7525 25.4517 24.7338C25.1501 24.6964 24.6997 24.6563 24.1004 24.6446C22.9019 24.6211 21.1084 24.7111 18.7201 25.1629L18.7644 25.3968ZM13.1483 30.7547C13.2654 30.776 13.2654 30.7761 13.2654 30.7761C13.2654 30.7761 13.2654 30.7761 13.2654 30.776C13.2655 30.776 13.2655 30.7758 13.2655 30.7756C13.2656 30.7752 13.2657 30.7746 13.2659 30.7736C13.2663 30.7717 13.2668 30.7687 13.2676 30.7647C13.2692 30.7566 13.2717 30.7444 13.2752 30.7282C13.2822 30.6957 13.2932 30.6475 13.3088 30.5856C13.3402 30.4616 13.3904 30.2826 13.4655 30.0646C13.6156 29.6285 13.8648 29.0375 14.2603 28.4191C15.0504 27.1838 16.4234 25.8397 18.7644 25.3968L18.7201 25.1629C16.3003 25.6207 14.8764 27.014 14.0597 28.2909C13.6519 28.9286 13.3952 29.5375 13.2404 29.9872C13.1629 30.2121 13.1109 30.3975 13.0781 30.5272C13.0617 30.5921 13.0501 30.643 13.0425 30.678C13.0387 30.6956 13.036 30.7091 13.0341 30.7184C13.0332 30.723 13.0325 30.7266 13.032 30.7291C13.0318 30.7304 13.0316 30.7314 13.0315 30.7321C13.0314 30.7324 13.0314 30.7327 13.0313 30.7329C13.0313 30.733 13.0313 30.7332 13.0313 30.7332C13.0313 30.7333 13.0313 30.7334 13.1483 30.7547ZM11.6011 27.7792C11.4858 27.8087 11.4858 27.8087 11.4858 27.8087C11.4858 27.8088 11.4858 27.8088 11.4858 27.8088C11.4859 27.8089 11.4859 27.8091 11.4859 27.8092C11.486 27.8095 11.4861 27.81 11.4863 27.8105C11.4866 27.8117 11.487 27.8133 11.4875 27.8155C11.4887 27.8197 11.4903 27.826 11.4925 27.8341C11.4968 27.8504 11.5033 27.8742 11.5119 27.9047C11.529 27.9657 11.5545 28.0534 11.5883 28.1612C11.6557 28.3767 11.7563 28.6729 11.8886 28.9961C12.151 29.6368 12.5467 30.4045 13.0718 30.8458L13.2249 30.6636C12.7474 30.2622 12.3695 29.5421 12.1089 28.9059C11.9797 28.5905 11.8814 28.3008 11.8155 28.0901C11.7825 27.9848 11.7576 27.8993 11.741 27.8403C11.7328 27.8108 11.7266 27.788 11.7224 27.7726C11.7204 27.7649 11.7189 27.7591 11.7179 27.7553C11.7173 27.7534 11.717 27.7519 11.7167 27.751C11.7166 27.7505 11.7165 27.7502 11.7165 27.75C11.7165 27.7499 11.7164 27.7498 11.7164 27.7498C11.7164 27.7498 11.7164 27.7498 11.7164 27.7498C11.7164 27.7498 11.7164 27.7498 11.6011 27.7792ZM11.4821 15.6393V27.7792H11.7201V15.6393H11.4821ZM9.10171 15.7583H11.6011V15.5203H9.10171V15.7583ZM9.22073 20.4V15.6393H8.98269V20.4H9.22073ZM5.53114 20.5191H9.10171V20.281H5.53114V20.5191ZM3.15077 16.8295C3.15077 18.177 3.7339 19.0985 4.3163 19.6809C4.60694 19.9715 4.89743 20.1779 5.11553 20.3118C5.22467 20.3788 5.31594 20.4278 5.38043 20.4603C5.41268 20.4766 5.43825 20.4887 5.45604 20.4969C5.46493 20.5009 5.47188 20.504 5.47675 20.5062C5.47918 20.5073 5.48109 20.5081 5.48246 20.5087C5.48315 20.509 5.4837 20.5092 5.48412 20.5094C5.48433 20.5095 5.4845 20.5095 5.48464 20.5096C5.48471 20.5096 5.48479 20.5097 5.48482 20.5097C5.48489 20.5097 5.48496 20.5097 5.53114 20.4C5.57732 20.2904 5.57737 20.2904 5.5774 20.2904C5.5774 20.2904 5.57743 20.2904 5.57743 20.2904C5.57743 20.2904 5.5774 20.2904 5.57734 20.2904C5.5772 20.2903 5.57694 20.2902 5.57654 20.29C5.57574 20.2897 5.57441 20.2891 5.57256 20.2883C5.56887 20.2867 5.56312 20.2841 5.55545 20.2806C5.54011 20.2735 5.5171 20.2626 5.48752 20.2477C5.42833 20.2179 5.34294 20.1721 5.24008 20.1089C5.03418 19.9825 4.75933 19.7872 4.48462 19.5125C3.93635 18.9643 3.38881 18.1004 3.38881 16.8295H3.15077ZM5.53114 13.4969C5.4953 13.3835 5.49523 13.3835 5.49515 13.3835C5.49512 13.3835 5.49503 13.3835 5.49496 13.3836C5.49481 13.3836 5.49463 13.3837 5.49442 13.3837C5.49398 13.3839 5.49342 13.3841 5.49271 13.3843C5.49131 13.3847 5.48936 13.3854 5.4869 13.3862C5.48197 13.3879 5.47495 13.3902 5.46599 13.3934C5.44806 13.3998 5.42233 13.4093 5.38991 13.4222C5.3251 13.448 5.23342 13.4876 5.12383 13.5434C4.90486 13.6548 4.6131 13.8314 4.3211 14.0926C3.73495 14.6171 3.15077 15.481 3.15077 16.8295H3.38881C3.38881 15.5597 3.9353 14.7573 4.47983 14.27C4.75317 14.0255 5.02674 13.8599 5.23178 13.7555C5.33419 13.7034 5.41918 13.6668 5.47803 13.6433C5.50745 13.6316 5.5303 13.6232 5.5455 13.6178C5.5531 13.6151 5.55878 13.6132 5.56241 13.6119C5.56422 13.6113 5.56552 13.6109 5.56629 13.6107C5.56667 13.6105 5.56692 13.6105 5.56704 13.6104C5.5671 13.6104 5.56712 13.6104 5.56711 13.6104C5.56711 13.6104 5.56708 13.6104 5.56707 13.6104C5.56703 13.6104 5.56698 13.6104 5.53114 13.4969ZM30.4061 20.4C32.3781 20.4 33.9767 18.8015 33.9767 16.8295H33.7386C33.7386 18.67 32.2466 20.162 30.4061 20.162V20.4ZM26.8815 17.4041C27.1565 19.1029 28.6297 20.4 30.4061 20.4V20.162C28.7483 20.162 27.3731 18.9514 27.1165 17.3661L26.8815 17.4041ZM29.0969 18.9718C28.1209 18.9718 27.306 18.2806 27.1156 17.361L26.8825 17.4092C27.0953 18.4372 28.0057 19.2099 29.0969 19.2099V18.9718ZM31.1202 16.9485C31.1202 18.0659 30.2143 18.9718 29.0969 18.9718V19.2099C30.3458 19.2099 31.3582 18.1974 31.3582 16.9485H31.1202ZM29.0969 14.9252C30.2143 14.9252 31.1202 15.831 31.1202 16.9485H31.3582C31.3582 15.6996 30.3458 14.6871 29.0969 14.6871V14.9252ZM27.0742 16.8981C27.1009 15.804 27.9962 14.9252 29.0969 14.9252V14.6871C27.8667 14.6871 26.866 15.6693 26.8362 16.8923L27.0742 16.8981ZM26.8355 16.8295C26.8355 16.8522 26.8357 16.8748 26.8362 16.8974L27.0742 16.893C27.0738 16.8719 27.0736 16.8507 27.0736 16.8295H26.8355ZM30.4061 13.2589C28.4341 13.2589 26.8355 14.8575 26.8355 16.8295H27.0736C27.0736 14.989 28.5656 13.4969 30.4061 13.4969V13.2589ZM33.9767 16.8295C33.9767 14.8575 32.3781 13.2589 30.4061 13.2589V13.4969C32.2466 13.4969 33.7386 14.989 33.7386 16.8295H33.9767ZM22.5509 17.0675C22.5509 18.908 21.0588 20.4 19.2183 20.4V20.6381C21.1903 20.6381 22.7889 19.0395 22.7889 17.0675H22.5509ZM19.2183 13.735C21.0588 13.735 22.5509 15.227 22.5509 17.0675H22.7889C22.7889 15.0955 21.1903 13.4969 19.2183 13.4969V13.735ZM15.9285 16.5328C16.1842 14.9465 17.5599 13.735 19.2183 13.735V13.4969C17.4412 13.4969 15.9675 14.7951 15.6934 16.4949L15.9285 16.5328ZM17.9092 14.6871C16.8173 14.6871 15.9064 15.4608 15.6944 16.4898L15.9275 16.5378C16.1172 15.6173 16.9325 14.9252 17.9092 14.9252V14.6871ZM20.1705 16.9485C20.1705 15.6996 19.1581 14.6871 17.9092 14.6871V14.9252C19.0266 14.9252 19.9325 15.831 19.9325 16.9485H20.1705ZM17.9092 19.2099C19.1581 19.2099 20.1705 18.1974 20.1705 16.9485H19.9325C19.9325 18.0659 19.0266 18.9718 17.9092 18.9718V19.2099ZM15.6484 17.0026C15.6772 18.2265 16.6783 19.2099 17.9092 19.2099V18.9718C16.8079 18.9718 15.9121 18.092 15.8864 16.997L15.6484 17.0026ZM15.8858 17.0675C15.8858 17.0456 15.886 17.0238 15.8864 17.002L15.6484 16.9975C15.648 17.0208 15.6478 17.0441 15.6478 17.0675H15.8858ZM19.2183 20.4C17.3778 20.4 15.8858 18.908 15.8858 17.0675H15.6478C15.6478 19.0395 17.2464 20.6381 19.2183 20.6381V20.4ZM26.7165 29.6835H17.9091V29.9216H26.7165V29.6835ZM22.4318 32.778C24.0785 32.778 25.1794 32.0446 25.8661 31.3122C26.2088 30.9466 26.4485 30.5813 26.6027 30.3072C26.6798 30.1701 26.7357 30.0554 26.7725 29.9746C26.7909 29.9342 26.8046 29.9022 26.8137 29.88C26.8183 29.8689 26.8218 29.8603 26.8241 29.8543C26.8253 29.8513 26.8262 29.8489 26.8268 29.8473C26.8272 29.8464 26.8274 29.8458 26.8276 29.8453C26.8277 29.845 26.8278 29.8448 26.8278 29.8447C26.8279 29.8446 26.8279 29.8445 26.8279 29.8445C26.8279 29.8444 26.828 29.8443 26.7165 29.8025C26.6051 29.7608 26.6051 29.7607 26.6051 29.7607C26.6051 29.7607 26.6051 29.7607 26.6051 29.7607C26.6051 29.7607 26.6051 29.7607 26.605 29.7608C26.605 29.761 26.6048 29.7614 26.6046 29.762C26.6042 29.763 26.6035 29.7648 26.6026 29.7672C26.6007 29.772 26.5977 29.7794 26.5937 29.7892C26.5856 29.8089 26.5731 29.8383 26.5559 29.876C26.5216 29.9513 26.4687 30.0599 26.3952 30.1905C26.2481 30.452 26.0192 30.8008 25.6924 31.1494C25.0401 31.8451 23.9987 32.54 22.4318 32.54V32.778ZM17.9091 29.8025C17.8009 29.8521 17.8009 29.8522 17.801 29.8523C17.801 29.8523 17.801 29.8524 17.8011 29.8525C17.8011 29.8526 17.8012 29.8528 17.8013 29.853C17.8016 29.8535 17.8019 29.8542 17.8022 29.855C17.803 29.8566 17.8041 29.859 17.8055 29.8619C17.8084 29.8679 17.8125 29.8765 17.818 29.8875C17.8289 29.9096 17.8452 29.9414 17.8669 29.9817C17.9103 30.0623 17.9755 30.1766 18.0639 30.3134C18.2405 30.5869 18.51 30.9513 18.8821 31.3158C19.6271 32.0455 20.7861 32.778 22.4318 32.778V32.54C20.864 32.54 19.7617 31.8442 19.0487 31.1457C18.6918 30.7962 18.4332 30.4464 18.2639 30.1843C18.1793 30.0533 18.1172 29.9445 18.0764 29.8688C18.0561 29.831 18.041 29.8015 18.0312 29.7817C18.0263 29.7719 18.0227 29.7644 18.0204 29.7595C18.0193 29.7571 18.0184 29.7553 18.0179 29.7542C18.0176 29.7537 18.0175 29.7533 18.0174 29.7531C18.0173 29.753 18.0173 29.7529 18.0173 29.7529C18.0173 29.7529 18.0173 29.7529 18.0173 29.7529C18.0173 29.7529 18.0173 29.753 17.9091 29.8025Z" fill="#01A6FF"/>
</svg>
