<svg width="163" height="131" viewBox="0 0 163 131" fill="none" xmlns="http://www.w3.org/2000/svg">
<path d="M15.9323 45.9586H0M7.96617 53.9248V37.9925V53.9248Z" stroke="#2A2A2A" stroke-width="2.45113" stroke-miterlimit="10"/>
<path d="M15.9323 7.96645H0M7.96617 15.9326V0.000282049V15.9326Z" stroke="#2A2A2A" stroke-width="2.45113" stroke-miterlimit="10"/>
<path d="M52.6994 45.9586H36.7671M44.7333 53.9248V37.9925V53.9248Z" stroke="#2A2A2A" stroke-width="2.45113" stroke-miterlimit="10"/>
<path d="M52.6994 7.96645H36.7671M44.7333 15.9326V0.000282049V15.9326Z" stroke="#2A2A2A" stroke-width="2.45113" stroke-miterlimit="10"/>
<path d="M89.465 45.9586H73.5327M81.4989 53.9248V37.9925V53.9248Z" stroke="#2A2A2A" stroke-width="2.45113" stroke-miterlimit="10"/>
<path d="M89.465 7.96645H73.5327M81.4989 15.9326V0.000282049V15.9326Z" stroke="#2A2A2A" stroke-width="2.45113" stroke-miterlimit="10"/>
<path d="M126.232 45.9586H110.3M118.266 53.9248V37.9925V53.9248Z" stroke="#2A2A2A" stroke-width="2.45113" stroke-miterlimit="10"/>
<path d="M126.232 7.96645H110.3M118.266 15.9326V0.000282049V15.9326Z" stroke="#2A2A2A" stroke-width="2.45113" stroke-miterlimit="10"/>
<path d="M163 45.9586H147.068M155.034 53.9248V37.9925V53.9248Z" stroke="#2A2A2A" stroke-width="2.45113" stroke-miterlimit="10"/>
<path d="M163 7.96645H147.068M155.034 15.9326V0.000282049V15.9326Z" stroke="#2A2A2A" stroke-width="2.45113" stroke-miterlimit="10"/>
<path d="M15.9323 122.251H0M7.96617 130.217V114.284V130.217Z" stroke="#2A2A2A" stroke-width="2.45113" stroke-miterlimit="10"/>
<path d="M15.9323 84.258H0M7.96617 92.2241V76.2918V92.2241Z" stroke="#2A2A2A" stroke-width="2.45113" stroke-miterlimit="10"/>
<path d="M52.6994 122.251H36.7671M44.7333 130.217V114.284V130.217Z" stroke="#2A2A2A" stroke-width="2.45113" stroke-miterlimit="10"/>
<path d="M52.6994 84.258H36.7671M44.7333 92.2241V76.2918V92.2241Z" stroke="#2A2A2A" stroke-width="2.45113" stroke-miterlimit="10"/>
<path d="M89.465 122.251H73.5327M81.4989 130.217V114.284V130.217Z" stroke="#2A2A2A" stroke-width="2.45113" stroke-miterlimit="10"/>
<path d="M89.465 84.258H73.5327M81.4989 92.2241V76.2918V92.2241Z" stroke="#2A2A2A" stroke-width="2.45113" stroke-miterlimit="10"/>
<path d="M126.232 122.251H110.3M118.266 130.217V114.284V130.217Z" stroke="#2A2A2A" stroke-width="2.45113" stroke-miterlimit="10"/>
<path d="M126.232 84.258H110.3M118.266 92.2241V76.2918V92.2241Z" stroke="#2A2A2A" stroke-width="2.45113" stroke-miterlimit="10"/>
<path d="M163 122.251H147.068M155.034 130.217V114.284V130.217Z" stroke="#2A2A2A" stroke-width="2.45113" stroke-miterlimit="10"/>
<path d="M163 84.258H147.068M155.034 92.2241V76.2918V92.2241Z" stroke="#2A2A2A" stroke-width="2.45113" stroke-miterlimit="10"/>
</svg>
