<svg width="63" height="53" viewBox="0 0 63 53" fill="none" xmlns="http://www.w3.org/2000/svg">
<path d="M20.1636 23.844C18.6119 23.3973 17.0602 23.1706 15.5508 23.1706C13.22 23.1706 11.2752 23.7032 9.76712 24.3555C11.221 19.033 14.7136 9.84925 21.6709 8.81503C22.3153 8.71921 22.8433 8.25331 23.0191 7.62617L24.5397 2.1874C24.6679 1.72745 24.5919 1.23512 24.3295 0.835971C24.0672 0.43682 23.6456 0.170498 23.173 0.105735C22.6596 0.0356856 22.1362 0 21.6174 0C13.2663 0 4.99581 8.71656 1.50588 21.1973C-0.54274 28.5195 -1.14345 39.5279 3.90277 46.4568C6.72657 50.334 10.8463 52.4044 16.1476 52.6113C16.1694 52.612 16.1905 52.6126 16.2124 52.6126C22.7534 52.6126 28.5537 48.2074 30.3181 41.901C31.3722 38.1308 30.8957 34.177 28.9753 30.765C27.0753 27.3914 23.9462 24.9324 20.1636 23.844Z" fill="#FF9000"/>
<path d="M61.1095 30.7657C59.2095 27.3914 56.0804 24.9324 52.2977 23.844C50.7461 23.3973 49.1944 23.1706 47.6857 23.1706C45.3549 23.1706 43.4093 23.7032 41.9013 24.3555C43.3552 19.033 46.8477 9.84925 53.8058 8.81503C54.4501 8.71921 54.9775 8.25331 55.1539 7.62617L56.6745 2.1874C56.8027 1.72745 56.7267 1.23512 56.4644 0.835971C56.2027 0.43682 55.781 0.170498 55.3079 0.105735C54.7951 0.0356856 54.2717 0 53.7522 0C45.4011 0 37.1306 8.71656 33.6401 21.1973C31.5921 28.5195 30.9914 39.5279 36.0383 46.4581C38.8614 50.3347 42.9818 52.4058 48.2824 52.6119C48.3042 52.6126 48.3254 52.6133 48.3479 52.6133C54.8882 52.6133 60.6891 48.2081 62.4536 41.9016C63.5063 38.1315 63.0292 34.177 61.1095 30.7657Z" fill="#FF9000"/>
</svg>
