<svg width="36" height="36" viewBox="0 0 36 36" fill="none" xmlns="http://www.w3.org/2000/svg">
<path d="M18 36C27.9411 36 36 27.9411 36 18C36 8.05888 27.9411 0 18 0C8.05888 0 0 8.05888 0 18C0 27.9411 8.05888 36 18 36Z" fill="#2A2A2A"/>
<path d="M29.0259 12.9366C28.2546 13.2786 27.4248 13.5099 26.5546 13.6133C27.4431 13.0809 28.1249 12.2387 28.4468 11.2334C27.6154 11.7266 26.6942 12.0843 25.7146 12.2772C24.9297 11.4413 23.8115 10.9189 22.5733 10.9189C20.1976 10.9189 18.2708 12.8458 18.2708 15.2215C18.2708 15.5587 18.309 15.8869 18.3828 16.202C14.807 16.0227 11.6365 14.3099 9.51431 11.706C9.14403 12.3413 8.93162 13.0809 8.93162 13.8693C8.93162 15.3617 9.69175 16.6792 10.8456 17.4505C10.1406 17.4284 9.47677 17.2349 8.89696 16.9118C8.89664 16.9301 8.89664 16.9484 8.89664 16.9663C8.89664 19.051 10.3803 20.7898 12.3482 21.1848C11.9876 21.2836 11.6067 21.3359 11.2149 21.3359C10.937 21.3359 10.6678 21.3093 10.4054 21.2592C10.9528 22.9681 12.5414 24.2121 14.4245 24.2471C12.9518 25.4013 11.0968 26.0889 9.0805 26.0889C8.73396 26.0889 8.39064 26.0687 8.05469 26.0286C9.95775 27.2498 12.2199 27.9618 14.6495 27.9618C22.5633 27.9618 26.8912 21.4058 26.8912 15.7198C26.8912 15.5333 26.887 15.3476 26.8787 15.1634C27.72 14.5569 28.4493 13.7994 29.0259 12.9366Z" fill="white"/>
</svg>
