<svg width="227" height="88" viewBox="0 0 227 88" fill="none" xmlns="http://www.w3.org/2000/svg">
<path d="M32.5583 64.748V84.9382C32.5583 85.7461 31.8502 86.1926 30.447 86.2923V87.1612H45.8079V86.2923C44.4295 86.1928 43.7338 85.7461 43.7338 84.9382V64.748C43.7338 60.5505 42.8397 57.1483 41.0644 54.5277C39.2761 51.9079 36.8674 50.0329 33.8124 48.8907C30.7578 47.7476 27.2187 47.1768 23.1833 47.1768C19.1352 47.1768 15.5836 47.7476 12.5291 48.8907C9.47452 50.0329 7.0651 51.9079 5.27709 54.5277C3.50155 57.1483 2.60742 60.5505 2.60742 64.748V74.3304H13.7836V64.748C13.7836 61.9661 14.5781 59.9171 16.1796 58.601C17.7819 57.2966 20.1163 56.6383 23.1709 56.6383C29.4288 56.6383 32.5583 59.3463 32.5583 64.748Z" fill="#DD6620"/>
<path fill-rule="evenodd" clip-rule="evenodd" d="M13.6514 16.4233L22.3243 17.9831C22.3246 17.9834 15.4196 24.1029 13.6514 16.4233Z" fill="#3C544A"/>
<path fill-rule="evenodd" clip-rule="evenodd" d="M36.0921 16.4233L27.4199 17.9831C27.4199 17.9834 34.3239 24.1029 36.0921 16.4233Z" fill="#3C544A"/>
<path d="M17.571 11.1762H30.4181H37.761H39.984V0H37.761H34.3687H17.571C13.374 0 9.97101 0.893394 7.35143 2.66943C4.73088 4.45743 2.85588 6.86686 1.71372 9.92091C0.570833 12.9759 0 16.5151 0 20.5507C0 24.5988 0.570833 28.1504 1.71372 31.205C2.85588 34.2595 4.73112 36.6689 7.35143 38.4569C9.97125 40.2325 13.374 41.1266 17.571 41.1266H36.2572H37.7612H39.9842V29.9506H37.7612H29.7315H17.571C14.7891 29.9506 12.7401 29.1562 11.424 27.5547C10.1198 25.9524 9.462 23.618 9.462 20.5634C9.462 14.3048 12.1695 11.1762 17.571 11.1762Z" fill="#DD6620"/>
<path d="M61.499 10.4812C64.523 10.4812 67.3904 11.0415 70.1131 12.1492C72.8343 13.2696 75.0747 14.9721 76.8116 17.2686C78.5478 19.5644 79.4207 22.41 79.4207 25.8043C79.4207 29.1755 78.5478 32.0209 76.7996 34.3394C75.0414 36.6577 72.7901 38.3609 70.0342 39.4693C67.279 40.5785 64.4334 41.1273 61.499 41.1273C58.5872 41.1273 55.7418 40.567 52.9642 39.4588C50.185 38.3391 47.9229 36.6247 46.1647 34.3167C44.4163 32.0096 43.543 29.1755 43.543 25.8043C43.543 22.41 44.4051 19.5644 46.1423 17.2686C47.8672 14.9721 50.1066 13.2696 52.8625 12.1492C55.6184 11.0413 58.497 10.4812 61.499 10.4812ZM61.499 17.6721C59.7733 17.6721 58.2058 18.0081 56.8058 18.6679C55.4058 19.3413 54.3082 20.2931 53.4903 21.5372C52.6831 22.7683 52.2802 24.1907 52.2802 25.7937C52.2802 28.2689 53.1655 30.2399 54.9352 31.7183C56.7046 33.198 58.8997 33.9367 61.4988 33.9367C63.224 33.9367 64.7796 33.6009 66.1696 32.9404C67.5588 32.2672 68.6564 31.3149 69.4743 30.0941C70.28 28.8622 70.6837 27.4285 70.6837 25.7937C70.6837 24.5612 70.4488 23.4408 69.9782 22.4213C69.5083 21.4025 68.8578 20.5397 68.0406 19.8447C67.223 19.14 66.2365 18.6016 65.0948 18.2317C63.941 17.862 62.7424 17.6721 61.499 17.6721ZM87.9125 38.7303V12.9112V12.8779V10.9066H106.305C109.474 10.9066 112.106 11.5789 114.191 12.9112C116.273 14.2439 117.808 16.0366 118.794 18.2881C119.779 20.5394 120.272 23.0486 120.272 25.8043C120.272 28.5375 119.779 31.0463 118.794 33.3204C117.808 35.5942 116.273 37.3976 114.191 38.7303C112.106 40.0638 109.474 40.7356 106.305 40.7356H87.9125V38.7628V38.7303ZM96.9063 17.4358V34.2052H101.723C103.527 34.2052 105.016 34.0591 106.204 33.7678C107.403 33.4658 108.388 32.9846 109.194 32.3241C109.991 31.6509 110.583 30.8 110.965 29.7468C111.345 28.7056 111.535 27.3946 111.535 25.8148C111.535 22.79 110.773 20.6291 109.24 19.3514C107.704 18.075 105.208 17.4358 101.723 17.4358H96.9063ZM129.816 10.9066H138.811V12.8899V38.7303V38.769V40.7356H129.816V38.769V38.7489V38.7303V12.9112V12.8899V12.8699V10.9066ZM213.009 24.46H215.569H226.999V28.2938V33.7458V33.7663V33.7869V37.2708C226.429 37.5369 225.828 37.7952 225.197 38.0466C223.819 38.5842 222.284 39.1001 220.604 39.582C218.912 40.0638 217.232 40.4441 215.563 40.7129C213.894 40.9924 212.237 41.1271 210.59 41.1271C207.05 41.1271 203.947 40.5782 201.281 39.4691C198.627 38.3606 196.565 36.6687 195.086 34.3848C193.608 32.0995 192.869 29.2422 192.869 25.804C192.869 23.2499 193.351 20.9871 194.324 19.0266C195.299 17.0673 196.598 15.465 198.233 14.2212C199.859 12.9779 201.751 12.0368 203.891 11.4095C206.042 10.7935 208.27 10.481 210.59 10.481C213.435 10.481 216.234 10.817 218.99 11.4997C219.562 11.6339 220.346 11.8357 221.366 12.1045L222.195 12.3227L224.535 13.1299L222.081 19.3829C219.997 18.7463 217.694 17.8197 215.619 17.3908C214.208 17.0883 212.988 16.9434 211.934 16.9434C208.853 16.9434 206.377 17.6596 204.518 19.1053C202.659 20.5502 201.73 22.7798 201.73 25.8038C201.73 28.8842 202.682 31.1912 204.597 32.7266C206.512 34.2605 209.032 35.0219 212.158 35.0219C214.567 35.0219 216.728 34.6859 218.655 34.0031V29.5792H215.832H213.008H212.971H211.015V24.4598H212.971H213.009V24.46Z" fill="#3C544A"/>
<path d="M174.723 23.2528V39.3544C174.723 39.9975 174.158 40.3545 173.039 40.4342V41.1265H185.288V40.4342C184.189 40.3545 183.634 39.9975 183.634 39.3544V23.2528C183.634 19.9047 182.922 17.1928 181.506 15.1035C180.079 13.0139 178.158 11.5187 175.723 10.6079C173.287 9.6967 170.464 9.24121 167.246 9.24121C164.018 9.24121 161.185 9.69646 158.75 10.6079C156.314 11.5187 154.392 13.0139 152.966 15.1035C151.55 17.1928 150.837 19.905 150.837 23.2528V30.6409H159.75V23.2528C159.75 21.0352 160.383 19.4011 161.661 18.3511C162.938 17.3116 164.8 16.7867 167.237 16.7867C172.227 16.7864 174.723 18.9451 174.723 23.2528Z" fill="#3C544A"/>
<path d="M51.6084 47.1768H60.3532V49.0857V49.1055V49.1256V74.228V74.2459V74.2652V76.1776H51.6084V74.2652V74.2459V74.228V49.1256V49.1055V49.0857V47.1768Z" fill="#3C544A"/>
<path d="M94.5224 59.1811V74.8353C94.5224 75.4606 93.974 75.8076 92.8861 75.8853V76.5585H104.795V75.8853C103.726 75.8076 103.187 75.4606 103.187 74.8353V59.1811C103.187 55.9262 102.494 53.2893 101.118 51.2576C99.7305 49.2265 97.8628 47.773 95.4945 46.8867C93.1263 46.0014 90.3817 45.5586 87.2528 45.5586C84.1147 45.5586 81.3615 46.0014 78.9933 46.8867C76.6252 47.773 74.7561 49.2265 73.3688 51.2576C71.9928 53.2893 71.2998 55.9262 71.2998 59.1811V65.4495V66.3642H79.9649V64.1678V59.1811C79.9649 57.0249 80.5822 55.4358 81.824 54.4148C83.0652 53.4039 84.8752 52.8941 87.244 52.8941C92.0956 52.8941 94.5224 54.993 94.5224 59.1811Z" fill="#3C544A"/>
<path d="M115.741 74.6012L117.733 67.9073C120.599 69.0954 121.636 69.8283 125.052 69.8283C126.653 69.8283 127.815 69.5382 128.559 68.9786C129.305 68.4178 129.681 67.3895 129.681 65.9082V53.3655V49.1256V49.0931V47.1768H138.426V49.0943V49.1256V51.5355V66.7026C138.426 68.6182 138.118 70.1992 137.501 71.4511C136.878 72.7135 136.019 73.7071 134.897 74.457C133.787 75.1984 132.447 75.7375 130.901 76.0693C129.345 76.4004 127.568 76.5585 125.563 76.5585C122.117 76.5588 119.003 75.5378 115.741 74.6012Z" fill="#3C544A"/>
<path d="M161.567 65.527H172.415L166.926 52.5728L161.567 65.527ZM185.809 76.1776H177.252L174.647 70.308H159.487L156.989 76.1776H149.373C153.488 66.447 157.799 56.8377 162.08 47.1768H172.655C176.884 56.9271 181.369 66.5201 185.809 76.1776Z" fill="#3C544A"/>
<path d="M196.755 73.6053L198.783 67.8432C200.89 68.489 203.953 69.6339 206.939 70.1331C208.933 70.4664 210.816 70.6223 212.581 70.6223C213.964 70.6223 215.293 70.4264 216.578 70.0454C217.863 69.6652 218.505 68.9245 218.505 67.8127C218.505 66.7135 217.199 65.9284 214.586 65.4824C211.972 65.0357 209.367 64.6222 206.777 64.2413C204.196 63.8615 201.937 63.1143 200.025 61.9978C198.116 60.8825 197.161 59.0793 197.161 56.5856C197.161 55.083 197.662 53.5694 198.663 52.0544C199.655 50.553 201.256 49.2887 203.456 48.2765C205.655 47.2636 208.389 46.7632 211.667 46.7632C213.147 46.7632 214.553 46.8448 215.87 46.9909C217.187 47.1368 218.299 47.2981 219.192 47.4701C221.689 47.9554 223.78 48.4984 226.234 49.1587L223.35 55.2797L220.885 54.2695L220.823 54.2436L220.762 54.2185L220.747 54.2126C220.31 54.0313 219.766 53.8375 219.116 53.6344C217.112 53.0123 215.108 52.6985 213.082 52.6985C208.127 52.6985 205.655 53.6777 205.655 55.6277C205.655 56.6294 206.831 57.327 209.195 57.7192C211.555 58.1107 214.161 58.5124 217.003 58.9379C219.834 59.3613 222.215 60.1643 224.125 61.3338C226.037 62.5048 227 64.3837 227 66.9642C227 69.7089 225.789 71.9947 223.384 73.8132C217.685 78.1245 202.358 76.3949 196.755 73.6053Z" fill="#3C544A"/>
</svg>
