<svg width="203" height="152" viewBox="0 0 203 152" fill="none" xmlns="http://www.w3.org/2000/svg">
<path d="M-26.0049 4.32062C-26.0049 1.94389 -24.0852 0.00497723 -21.7133 0.000165939C-19.3149 0.000165939 -17.3784 1.94389 -17.376 4.31581C-17.3784 6.70938 -19.3149 8.63867 -21.7133 8.63146C-24.0876 8.63146 -26.0097 6.71419 -26.0049 4.32062ZM-4.03454 4.31581C-4.03454 1.94389 -2.11487 0.00497723 0.278696 0.00497723C2.65783 0.00497723 4.59675 1.94389 4.59675 4.32062C4.59915 6.71419 2.65783 8.63867 0.278696 8.63146C-2.11247 8.63146 -4.03454 6.71419 -4.03454 4.31581ZM17.9358 4.31581C17.9358 1.9487 19.8555 0.000165939 22.249 0.000165939C24.6209 0.00497723 26.5671 1.94389 26.5671 4.32062C26.5695 6.71419 24.6258 8.63867 22.2562 8.63146C19.8506 8.63867 17.9358 6.71419 17.9358 4.31581ZM39.9061 4.32062C39.9061 1.94389 41.845 0.00497723 44.2218 0.00497723C46.6153 0.000165939 48.535 1.94389 48.5374 4.31581C48.5374 6.71419 46.6153 8.63146 44.217 8.63146C41.8402 8.63146 39.9061 6.70938 39.9061 4.32062ZM61.8716 4.32062C61.8764 1.94389 63.8178 0.000165939 66.1897 0.000165939C68.5833 0.00497723 70.5029 1.9487 70.5101 4.31581C70.5029 6.71419 68.5833 8.63146 66.1897 8.63867C63.8178 8.63146 61.8764 6.71419 61.8716 4.32062ZM83.842 4.32062C83.8396 1.94389 85.7833 0.00497723 88.1769 0.000165939C90.5536 0.00497723 92.4757 1.94389 92.4757 4.32062C92.4757 6.71419 90.5536 8.63867 88.1745 8.63867C85.7833 8.63146 83.8396 6.71419 83.842 4.32062ZM105.832 4.31581C105.832 1.94389 107.754 0.000165939 110.147 0.000165939C112.524 0.000165939 114.468 1.94389 114.468 4.32062C114.465 6.70938 112.524 8.63146 110.154 8.63867C107.756 8.63867 105.832 6.71419 105.832 4.31581ZM127.799 4.31581C127.802 1.94389 129.722 0.000165939 132.118 0.000165939C134.494 0.000165939 136.44 1.94389 136.436 4.32062C136.436 6.71419 134.494 8.63146 132.118 8.63146C129.722 8.63146 127.804 6.71419 127.799 4.31581ZM149.775 4.31581C149.772 1.94389 151.694 0.00497723 154.088 0.000165939C156.484 0.00497723 158.408 1.94389 158.408 4.31581C158.404 6.71419 156.484 8.63146 154.088 8.63146C151.697 8.63146 149.775 6.71419 149.775 4.31581ZM171.743 4.31581C171.743 1.94389 173.689 0.00497723 176.063 0.00497723C178.454 0.00497723 180.376 1.94389 180.376 4.31581C180.376 6.71419 178.454 8.63867 176.063 8.63146C173.684 8.63146 171.74 6.72141 171.743 4.31581Z" fill="#FF9000"/>
<path d="M198.048 8.63229C196.903 8.63229 195.785 8.18244 194.986 7.38378C194.187 6.55866 193.709 5.46171 193.711 4.32145C193.709 3.19082 194.187 2.07222 194.986 1.27837C196.605 -0.321352 199.477 -0.340596 201.096 1.27356C201.892 2.07222 202.345 3.19563 202.345 4.31664C202.345 5.46171 201.892 6.56347 201.094 7.38378C200.273 8.18244 199.174 8.6371 198.048 8.63229Z" fill="#FF9000"/>
<path d="M-26.0098 28.0789C-26.0098 25.6853 -24.0877 23.7632 -21.6917 23.7632C-19.315 23.7632 -17.3785 25.6805 -17.3785 28.0789C-17.3785 30.4508 -19.315 32.3945 -21.6917 32.3945C-24.0853 32.3945 -26.0074 30.4508 -26.0098 28.0789ZM-4.03462 28.0789C-4.03943 25.6805 -2.11736 23.7584 0.28343 23.7632C2.65295 23.7632 4.59667 25.6805 4.59667 28.0789C4.59667 30.4508 2.65776 32.3945 0.27862 32.3945C-2.11736 32.3945 -4.03462 30.4508 -4.03462 28.0789ZM17.9357 28.0789C17.9381 25.6805 19.853 23.7632 22.2538 23.7632C24.6257 23.7632 26.567 25.6805 26.567 28.0789C26.5694 30.4508 24.6257 32.3945 22.249 32.3945C19.8554 32.3945 17.9381 30.4508 17.9357 28.0789ZM39.906 28.0789C39.906 25.6805 41.8498 23.7632 44.2169 23.7632C46.6153 23.7632 48.5349 25.6805 48.5373 28.0789C48.5397 30.4508 46.6153 32.3897 44.2217 32.3945C41.845 32.3945 39.8988 30.4508 39.906 28.0789ZM61.8764 28.0837C61.8764 25.6853 63.8177 23.7632 66.1896 23.7632C68.5808 23.7632 70.5077 25.6805 70.5077 28.0789C70.5029 30.4508 68.5832 32.3945 66.1848 32.3945C63.8177 32.3945 61.8764 30.4508 61.8764 28.0837ZM83.8419 28.0789C83.8419 25.6805 85.7832 23.7632 88.1551 23.7632C90.5535 23.7632 92.4949 25.6805 92.4949 28.0789C92.49 30.4508 90.5535 32.3945 88.16 32.3945C85.7832 32.3945 83.8419 30.4508 83.8419 28.0789ZM105.831 28.0789C105.839 25.6805 107.756 23.7584 110.147 23.7632C112.524 23.7632 114.468 25.6805 114.465 28.0789C114.465 30.4508 112.521 32.3897 110.147 32.3945C107.754 32.3945 105.839 30.4508 105.831 28.0789ZM127.802 28.0789C127.802 25.6805 129.721 23.7632 132.117 23.7632C134.494 23.7632 136.436 25.6853 136.436 28.0789C136.44 30.4508 134.494 32.3945 132.117 32.3897C129.724 32.3945 127.802 30.4508 127.802 28.0789ZM149.775 28.0789C149.775 25.6853 151.697 23.7632 154.088 23.7632C156.465 23.7584 158.408 25.6805 158.408 28.0789C158.408 30.4508 156.46 32.3945 154.088 32.3897C151.694 32.3945 149.772 30.4508 149.775 28.0789ZM171.742 28.0789C171.742 25.6805 173.689 23.7584 176.061 23.7632C178.459 23.7632 180.376 25.6805 180.376 28.0789C180.376 30.4508 178.454 32.3897 176.061 32.3945C173.689 32.3945 171.745 30.4508 171.742 28.0789Z" fill="#FF9000"/>
<path d="M198.03 32.395C196.911 32.395 195.783 31.9404 194.984 31.1201C194.19 30.3214 193.733 29.222 193.733 28.0794C193.736 26.9343 194.19 25.8301 194.984 25.0363C196.606 23.4173 199.473 23.4173 201.095 25.0363C201.891 25.835 202.345 26.9343 202.345 28.0794C202.345 29.1956 201.891 30.3214 201.092 31.1201C200.296 31.9404 199.175 32.395 198.03 32.395Z" fill="#FF9000"/>
<path d="M-26.0049 51.1048C-26.0049 48.7065 -24.0852 46.7892 -21.6916 46.7892C-19.3149 46.7892 -17.3784 48.7113 -17.3784 51.1048C-17.3784 53.4768 -19.3149 55.4253 -21.6892 55.4205C-24.0804 55.4253 -26.0049 53.4816 -26.0049 51.1048ZM-4.03455 51.1048C-4.03455 48.7065 -2.11729 46.7892 0.278687 46.7892C2.65782 46.7892 4.59674 48.7065 4.59674 51.1048C4.59674 53.4768 2.65782 55.4205 0.278687 55.4205C-2.11729 55.4205 -4.03455 53.4816 -4.03455 51.1048ZM17.9382 51.1048C17.9382 48.7065 19.853 46.794 22.249 46.7892C24.6258 46.7892 26.5671 48.7113 26.5671 51.1048C26.5671 53.4768 24.6258 55.4205 22.2562 55.4205C19.8554 55.4253 17.9382 53.4816 17.9382 51.1048ZM39.9061 51.1048C39.9061 48.7065 41.845 46.7892 44.2169 46.794C46.6153 46.7892 48.5398 48.7065 48.535 51.1048C48.5398 53.4816 46.6153 55.4205 44.2218 55.4205C41.845 55.4205 39.9037 53.4768 39.9061 51.1048ZM61.8764 51.1048C61.8692 48.7113 63.8178 46.7892 66.1897 46.7892C68.5833 46.7892 70.5053 48.7113 70.5077 51.1048C70.5053 53.4768 68.5833 55.4253 66.1897 55.4205C63.8178 55.4253 61.8764 53.4816 61.8764 51.1048ZM83.842 51.1048C83.842 48.7065 85.7833 46.7892 88.1552 46.7892C90.5536 46.7892 92.4757 48.7065 92.4708 51.1048C92.4757 53.4816 90.5584 55.4253 88.1576 55.4205C85.7833 55.4253 83.842 53.4816 83.842 51.1048ZM105.832 51.1048C105.839 48.7065 107.754 46.7892 110.147 46.7892C112.519 46.7892 114.465 48.7113 114.465 51.1096C114.465 53.4768 112.522 55.4205 110.147 55.4253C107.754 55.4253 105.832 53.4768 105.832 51.1048ZM127.802 51.1048C127.802 48.7065 129.722 46.7892 132.118 46.7892C134.494 46.7892 136.436 48.7113 136.436 51.1048C136.44 53.4816 134.494 55.4253 132.118 55.4205C129.724 55.4205 127.802 53.4768 127.802 51.1048ZM149.775 51.1048C149.775 48.7113 151.714 46.794 154.088 46.7892C156.465 46.7892 158.408 48.7065 158.408 51.1048C158.408 53.4768 156.462 55.4205 154.088 55.4205C151.718 55.4253 149.772 53.4816 149.775 51.1048ZM171.743 51.1048C171.745 48.7065 173.689 46.7892 176.063 46.7892C178.459 46.7892 180.376 48.7113 180.376 51.1096C180.376 53.4768 178.454 55.4205 176.063 55.4253C173.689 55.4205 171.745 53.4816 171.743 51.1048Z" fill="#FF9000"/>
<path d="M198.029 55.4263C196.91 55.4215 195.804 54.9476 194.983 54.1489C194.187 53.3502 193.708 52.234 193.706 51.1058C193.708 49.9656 194.19 48.8614 194.983 48.0411C196.6 46.4438 199.475 46.4438 201.094 48.0411C201.89 48.8614 202.345 49.9656 202.345 51.1058C202.345 52.2292 201.89 53.3526 201.094 54.1489C200.271 54.9524 199.174 55.4263 198.029 55.4263Z" fill="#FF9000"/>
<path d="M-26.0049 74.847C-26.0049 72.4702 -24.0804 70.5265 -21.6892 70.5313C-19.3149 70.5265 -17.3784 72.475 -17.3784 74.847C-17.3784 77.2405 -19.3149 79.1578 -21.6916 79.1578C-24.0852 79.1626 -26.0049 77.2453 -26.0049 74.847ZM-4.03455 74.8421C-4.03455 72.4702 -2.11729 70.5313 0.278687 70.5313C2.65782 70.5313 4.59674 72.4702 4.59674 74.847C4.59674 77.2453 2.65302 79.1578 0.283501 79.1578C-2.11729 79.1626 -4.03936 77.2453 -4.03455 74.8421ZM17.9358 74.8421C17.9382 72.4702 19.8771 70.5313 22.249 70.5265C24.6258 70.5313 26.5671 72.475 26.5671 74.847C26.5671 77.2405 24.6258 79.1578 22.2562 79.1578C19.8771 79.1578 17.9382 77.2453 17.9358 74.8421ZM39.9037 74.847C39.8989 72.4702 41.8426 70.5265 44.2218 70.5265C46.6153 70.5313 48.5398 72.4702 48.5374 74.8421C48.535 77.2405 46.6153 79.1578 44.2169 79.1578C41.8522 79.1578 39.9037 77.2405 39.9037 74.847ZM61.8764 74.8421C61.8764 72.4702 63.8178 70.5265 66.1849 70.5265C68.5833 70.5265 70.5077 72.475 70.5053 74.847C70.5053 77.2405 68.5808 79.1578 66.1897 79.1578C63.8178 79.1626 61.8764 77.2357 61.8764 74.8421ZM83.842 74.847C83.8396 72.4702 85.7833 70.5265 88.16 70.5265C90.5584 70.5265 92.4757 72.4702 92.4757 74.8421C92.4781 77.2405 90.5536 79.1626 88.1552 79.1578C85.7833 79.1578 83.842 77.2405 83.842 74.847ZM105.832 74.847C105.839 72.4702 107.754 70.5265 110.145 70.5313C112.519 70.5313 114.465 72.4702 114.46 74.847C114.465 77.2405 112.524 79.1578 110.147 79.1578C107.751 79.1578 105.832 77.2405 105.832 74.847ZM127.802 74.847C127.802 72.475 129.724 70.5313 132.118 70.5313C134.494 70.5265 136.44 72.4702 136.436 74.847C136.436 77.2405 134.494 79.1626 132.118 79.1578C129.722 79.1578 127.802 77.2453 127.802 74.847ZM149.775 74.8421C149.772 72.4702 151.714 70.5313 154.088 70.5313C156.465 70.5313 158.408 72.4702 158.408 74.847C158.408 77.2453 156.462 79.1578 154.088 79.1578C151.714 79.1578 149.775 77.2405 149.775 74.8421ZM171.743 74.847C171.745 72.4702 173.689 70.5313 176.063 70.5265C178.459 70.5265 180.376 72.4702 180.376 74.847C180.376 77.2405 178.454 79.1578 176.063 79.1626C173.689 79.1626 171.743 77.2405 171.743 74.847Z" fill="#FF9000"/>
<path d="M198.029 79.1582C196.904 79.1582 195.783 78.706 194.984 77.9097C194.185 77.087 193.709 75.9876 193.709 74.8426C193.709 73.7288 194.19 72.5981 194.984 71.8043C196.601 70.1853 199.473 70.207 201.094 71.8043C201.89 72.5981 202.362 73.724 202.367 74.8474C202.364 75.9876 201.89 77.0894 201.094 77.9097C200.296 78.706 199.172 79.1582 198.029 79.1582Z" fill="#FF9000"/>
<path d="M-26.0049 100.132C-26.0097 97.7337 -24.0876 95.8092 -21.6868 95.8092C-19.3149 95.8092 -17.3712 97.7265 -17.3712 100.13C-17.3784 102.504 -19.3149 104.448 -21.6916 104.448C-24.0876 104.448 -26.0049 102.504 -26.0049 100.132ZM-4.03454 100.13C-4.03454 97.7337 -2.11728 95.8165 0.278696 95.8165C2.65783 95.8165 4.59675 97.7337 4.59675 100.132C4.59675 102.504 2.65784 104.448 0.28351 104.448C-2.11247 104.448 -4.03454 102.499 -4.03454 100.13ZM17.9358 100.13C17.9358 97.7337 19.8771 95.8165 22.249 95.8092C24.6209 95.8092 26.5647 97.7337 26.5671 100.132C26.5671 102.504 24.6258 104.448 22.2562 104.448C19.8771 104.448 17.9358 102.499 17.9358 100.13ZM39.9037 100.132C39.9061 97.7337 41.8426 95.8092 44.2218 95.8092C46.6129 95.8092 48.5374 97.7337 48.5374 100.13C48.5374 102.499 46.6153 104.448 44.217 104.448C41.8522 104.448 39.9061 102.504 39.9037 100.132ZM61.8765 100.13C61.8765 97.7265 63.8178 95.8092 66.1849 95.8092C68.5833 95.8092 70.5053 97.7337 70.5053 100.132C70.5077 102.504 68.5833 104.443 66.1897 104.443C63.8178 104.448 61.8717 102.504 61.8765 100.13ZM83.8636 100.13C83.8636 97.7337 85.7833 95.8092 88.1576 95.8092C90.5536 95.8092 92.4949 97.7337 92.4949 100.132C92.4949 102.504 90.5536 104.448 88.1552 104.448C85.7833 104.448 83.8588 102.504 83.8636 100.13ZM105.839 100.13C105.839 97.7265 107.754 95.8092 110.147 95.8092C112.524 95.8092 114.465 97.7337 114.465 100.132C114.468 102.504 112.524 104.448 110.154 104.443C107.754 104.448 105.832 102.504 105.839 100.13ZM127.799 100.13C127.799 97.7337 129.719 95.8092 132.118 95.8092C134.494 95.8092 136.436 97.7337 136.44 100.13C136.436 102.504 134.494 104.443 132.118 104.448C129.722 104.448 127.802 102.504 127.799 100.13ZM149.775 100.132C149.775 97.7337 151.718 95.8092 154.088 95.8165C156.484 95.8165 158.408 97.7337 158.408 100.132C158.408 102.499 156.484 104.443 154.088 104.448C151.714 104.448 149.775 102.504 149.775 100.132ZM171.743 100.132C171.743 97.7337 173.684 95.8092 176.063 95.8092C178.459 95.8092 180.376 97.7337 180.376 100.13C180.376 102.504 178.459 104.443 176.063 104.448C173.684 104.448 171.74 102.504 171.743 100.132Z" fill="#FF9000"/>
<path d="M198.029 104.449C196.904 104.449 195.783 103.994 194.984 103.169C194.185 102.375 193.709 101.252 193.709 100.128C193.709 99.0097 194.188 97.8839 194.984 97.09C196.576 95.4662 199.497 95.4662 201.097 97.0635C201.89 97.8839 202.364 99.0097 202.364 100.128C202.364 101.252 201.89 102.375 201.092 103.169C200.296 103.994 199.175 104.449 198.029 104.449Z" fill="#FF9000"/>
<path d="M-26.0049 123.888C-26.0049 121.493 -24.0852 119.575 -21.6892 119.575C-19.3101 119.575 -17.376 121.493 -17.376 123.888C-17.3784 126.263 -19.3149 128.207 -21.6892 128.207C-24.0852 128.207 -26.0097 126.263 -26.0049 123.888ZM-4.03454 123.896C-4.03935 121.493 -2.11728 119.575 0.278698 119.575C2.65302 119.575 4.59675 121.493 4.59675 123.888C4.59916 126.263 2.65784 128.207 0.278698 128.207C-2.11728 128.207 -4.03454 126.268 -4.03454 123.896ZM17.9358 123.896C17.9334 121.493 19.8507 119.575 22.2563 119.575C24.6258 119.575 26.5695 121.493 26.5671 123.888C26.5671 126.263 24.6258 128.207 22.249 128.207C19.8507 128.207 17.9358 126.263 17.9358 123.896ZM39.9061 123.888C39.9061 121.493 41.845 119.575 44.217 119.575C46.6153 119.575 48.535 121.493 48.5374 123.896C48.5374 126.263 46.6153 128.202 44.2218 128.207C41.845 128.207 39.8989 126.263 39.9061 123.888ZM61.8765 123.888C61.8765 121.493 63.813 119.575 66.1897 119.575C68.5833 119.575 70.5078 121.493 70.5078 123.888C70.5053 126.263 68.5833 128.207 66.1897 128.207C63.813 128.207 61.8765 126.268 61.8765 123.888ZM83.8684 123.888C83.8684 121.493 85.7833 119.575 88.1576 119.575C90.5536 119.575 92.4757 121.493 92.4757 123.888C92.4757 126.268 90.5536 128.207 88.16 128.207C85.7833 128.207 83.8636 126.263 83.8684 123.888ZM105.832 123.888C105.832 121.493 107.751 119.575 110.15 119.575C112.519 119.575 114.468 121.493 114.468 123.888C114.465 126.263 112.519 128.207 110.15 128.207C107.756 128.207 105.832 126.263 105.832 123.888ZM127.802 123.888C127.802 121.493 129.724 119.575 132.118 119.575C134.497 119.575 136.436 121.493 136.436 123.888C136.436 126.263 134.494 128.207 132.118 128.207C129.724 128.207 127.802 126.256 127.802 123.888ZM149.782 123.888C149.782 121.493 151.718 119.568 154.088 119.575C156.462 119.575 158.408 121.493 158.408 123.888C158.408 126.256 156.462 128.202 154.088 128.202C151.718 128.207 149.772 126.268 149.782 123.888ZM171.74 123.888C171.74 121.493 173.684 119.575 176.063 119.575C178.454 119.575 180.379 121.493 180.376 123.888C180.376 126.268 178.454 128.207 176.063 128.207C173.689 128.207 171.743 126.263 171.74 123.888Z" fill="#FF9000"/>
<path d="M198.029 128.201C196.91 128.206 195.782 127.732 194.984 126.933C194.185 126.137 193.711 125.014 193.711 123.888C193.709 122.745 194.187 121.646 194.984 120.826C196.605 119.223 199.475 119.228 201.091 120.826C201.892 121.646 202.366 122.745 202.366 123.888C202.366 125.014 201.89 126.132 201.091 126.933C200.293 127.732 199.174 128.206 198.029 128.201Z" fill="#FF9000"/>
<path d="M-26.0059 146.896C-26.0083 144.519 -24.0862 142.578 -21.6902 142.578C-19.3159 142.583 -17.377 144.524 -17.3722 146.896C-17.377 149.289 -19.3159 151.211 -21.6902 151.216C-24.079 151.211 -26.0059 149.289 -26.0059 146.896ZM-4.03552 146.896C-4.03552 144.519 -2.11345 142.578 0.284929 142.578C2.65685 142.578 4.59576 144.524 4.59576 146.891C4.59576 149.289 2.65685 151.211 0.272902 151.211C-2.11826 151.211 -4.03552 149.294 -4.03552 146.896ZM17.9348 146.896C17.9348 144.519 19.8785 142.578 22.2504 142.578C24.6248 142.578 26.5685 144.524 26.5637 146.896C26.5685 149.289 24.6248 151.216 22.2504 151.211C19.8785 151.216 17.9348 149.294 17.9348 146.896ZM39.9051 146.896C39.9051 144.524 41.8465 142.578 44.216 142.578C46.6143 142.578 48.5364 144.519 48.5364 146.896C48.5364 149.294 46.6144 151.211 44.2208 151.211C41.8441 151.211 39.9051 149.289 39.9051 146.896ZM61.8755 146.896C61.8755 144.519 63.8144 142.578 66.1887 142.578C68.5847 142.578 70.5068 144.524 70.5068 146.901C70.5068 149.289 68.5847 151.211 66.1911 151.216C63.8192 151.211 61.8779 149.289 61.8755 146.896ZM83.8434 146.896C83.8434 144.524 85.7847 142.578 88.1566 142.578C90.5526 142.578 92.4771 144.519 92.4771 146.896C92.4771 149.294 90.5574 151.211 88.1614 151.211C85.7847 151.211 83.8434 149.289 83.8434 146.896ZM105.84 146.896C105.833 144.524 107.755 142.578 110.156 142.578C112.525 142.578 114.467 144.519 114.467 146.896C114.467 149.294 112.523 151.211 110.149 151.211C107.755 151.211 105.833 149.289 105.84 146.896ZM127.801 146.896C127.803 144.524 129.723 142.578 132.117 142.578C134.496 142.583 136.435 144.524 136.439 146.896C136.435 149.289 134.496 151.211 132.117 151.216C129.723 151.216 127.803 149.289 127.801 146.896ZM149.771 146.896C149.771 144.519 151.715 142.578 154.087 142.578C156.466 142.578 158.407 144.524 158.407 146.896C158.407 149.289 156.464 151.216 154.087 151.216C151.72 151.211 149.774 149.289 149.771 146.896ZM171.742 146.896C171.742 144.519 173.685 142.578 176.062 142.578C178.453 142.578 180.378 144.524 180.375 146.896C180.375 149.294 178.458 151.211 176.062 151.211C173.69 151.216 171.742 149.289 171.742 146.896Z" fill="#FF9000"/>
<path d="M198.029 151.211C196.911 151.211 195.778 150.759 194.984 149.962C194.188 149.144 193.709 148.036 193.709 146.895C193.709 145.769 194.185 144.651 194.984 143.852C196.605 142.248 199.475 142.252 201.092 143.852C201.888 144.651 202.352 145.777 202.345 146.895C202.343 148.04 201.893 149.159 201.092 149.962C200.269 150.759 199.167 151.216 198.029 151.211Z" fill="#FF9000"/>
</svg>
