<svg width="36" height="36" viewBox="0 0 36 36" fill="none" xmlns="http://www.w3.org/2000/svg">
<path d="M18 36C27.9411 36 36 27.9411 36 18C36 8.05888 27.9411 0 18 0C8.05888 0 0 8.05888 0 18C0 27.9411 8.05888 36 18 36Z" fill="#2A2A2A"/>
<path d="M28.7551 19.4491V26.8701H24.4526V19.9465C24.4526 18.208 23.8314 17.0208 22.2736 17.0208C21.0848 17.0208 20.3786 17.8201 20.0667 18.594C19.9534 18.8706 19.9242 19.2547 19.9242 19.6426V26.8698H15.6214C15.6214 26.8698 15.6792 15.1434 15.6214 13.9296H19.9246V15.7633C19.9159 15.7777 19.9037 15.7919 19.896 15.8057H19.9246V15.7633C20.4963 14.8835 21.5161 13.6257 23.8022 13.6257C26.6329 13.6257 28.7551 15.4752 28.7551 19.4491ZM11.1203 7.69189C9.64847 7.69189 8.68555 8.65803 8.68555 9.92738C8.68555 11.1698 9.62055 12.1638 11.0638 12.1638H11.0917C12.5924 12.1638 13.5255 11.1698 13.5255 9.92738C13.4969 8.65803 12.5924 7.69189 11.1203 7.69189ZM8.94128 26.8701H13.2425V13.9296H8.94128V26.8701Z" fill="white"/>
</svg>
