<svg width="76" height="19" viewBox="0 0 76 19" fill="none" xmlns="http://www.w3.org/2000/svg">
<path d="M1.784 18C1.4 18 1.096 17.888 0.872 17.664C0.664 17.424 0.576 17.112 0.608 16.728L1.76 2.28C1.776 1.896 1.896 1.6 2.12 1.392C2.36 1.184 2.664 1.08 3.032 1.08H7.688C10.232 1.08 12.208 1.768 13.616 3.144C15.024 4.52 15.728 6.432 15.728 8.88C15.728 10.784 15.384 12.416 14.696 13.776C14.008 15.136 13 16.184 11.672 16.92C10.36 17.64 8.776 18 6.92 18H1.784ZM6.752 15.936C8.896 15.936 10.504 15.336 11.576 14.136C12.664 12.936 13.208 11.176 13.208 8.856C13.208 6.968 12.728 5.544 11.768 4.584C10.808 3.624 9.368 3.144 7.448 3.144H4.16L3.152 15.936H6.752ZM24.2503 18.192C21.6903 18.192 19.6823 17.616 18.2263 16.464C17.8263 16.176 17.6263 15.816 17.6263 15.384C17.6263 15.096 17.7063 14.856 17.8663 14.664C18.0423 14.472 18.2583 14.376 18.5143 14.376C18.7383 14.376 18.9543 14.448 19.1623 14.592C20.5703 15.648 22.2903 16.176 24.3223 16.176C25.6023 16.176 26.5783 15.952 27.2503 15.504C27.9383 15.04 28.2823 14.392 28.2823 13.56C28.2823 13.032 28.1063 12.6 27.7543 12.264C27.4183 11.928 26.9943 11.664 26.4823 11.472C25.9703 11.264 25.2583 11.024 24.3463 10.752C23.1623 10.4 22.1943 10.064 21.4423 9.744C20.7063 9.408 20.0743 8.928 19.5463 8.304C19.0343 7.664 18.7783 6.832 18.7783 5.808C18.7783 4.816 19.0423 3.952 19.5703 3.216C20.1143 2.464 20.8743 1.888 21.8503 1.488C22.8263 1.088 23.9703 0.887999 25.2823 0.887999C26.4503 0.887999 27.5383 1.056 28.5463 1.392C29.5703 1.728 30.4103 2.184 31.0663 2.76C31.3383 2.984 31.4743 3.272 31.4743 3.624C31.4743 3.912 31.3783 4.16 31.1863 4.368C31.0103 4.576 30.7863 4.68 30.5143 4.68C30.2903 4.68 30.0343 4.584 29.7463 4.392C29.1863 3.944 28.5143 3.584 27.7303 3.312C26.9463 3.04 26.1143 2.904 25.2343 2.904C23.9703 2.904 22.9943 3.144 22.3063 3.624C21.6183 4.104 21.2743 4.776 21.2743 5.64C21.2743 6.216 21.4583 6.696 21.8263 7.08C22.1943 7.448 22.6503 7.744 23.1943 7.968C23.7383 8.176 24.4823 8.416 25.4263 8.688C26.5783 9.024 27.5063 9.352 28.2103 9.672C28.9143 9.976 29.5143 10.424 30.0103 11.016C30.5223 11.608 30.7783 12.384 30.7783 13.344C30.7783 14.848 30.1943 16.032 29.0262 16.896C27.8743 17.76 26.2823 18.192 24.2503 18.192ZM55.6719 1.704C55.7679 1.448 55.9199 1.256 56.1279 1.128C56.3519 1 56.5839 0.935999 56.8239 0.935999C57.1119 0.935999 57.3599 1.024 57.5679 1.2C57.7759 1.376 57.8799 1.616 57.8799 1.92C57.8799 2.096 57.8319 2.296 57.7359 2.52L51.3759 17.328C51.2639 17.6 51.0879 17.808 50.8479 17.952C50.6079 18.096 50.3519 18.168 50.0799 18.168C49.8079 18.168 49.5519 18.088 49.3119 17.928C49.0879 17.768 48.9359 17.544 48.8559 17.256L45.4959 4.944L40.1679 17.328C40.0559 17.6 39.8799 17.808 39.6399 17.952C39.3999 18.096 39.1439 18.168 38.8719 18.168C38.5999 18.168 38.3439 18.088 38.1039 17.928C37.8799 17.768 37.7279 17.544 37.6479 17.256L33.6159 2.496C33.5839 2.4 33.5679 2.264 33.5679 2.088C33.5679 1.736 33.6879 1.456 33.9279 1.248C34.1839 1.04 34.4799 0.935999 34.8159 0.935999C35.0719 0.935999 35.2959 1.008 35.4879 1.152C35.6959 1.28 35.8319 1.48 35.8959 1.752L39.2079 14.496L44.6319 1.8C44.7439 1.528 44.9119 1.32 45.1359 1.176C45.3599 1.016 45.5919 0.935999 45.8319 0.935999C46.0879 0.935999 46.3199 1.016 46.5279 1.176C46.7359 1.336 46.8719 1.552 46.9359 1.824L50.2719 14.568L55.6719 1.704ZM74.1391 0.959999C74.5071 0.959999 74.7951 1.072 75.0031 1.296C75.2111 1.52 75.3071 1.824 75.2911 2.208L74.1391 16.92C74.1071 17.288 73.9711 17.584 73.7311 17.808C73.5071 18.016 73.2111 18.12 72.8431 18.12C72.4751 18.12 72.1791 18.008 71.9551 17.784C71.7471 17.56 71.6591 17.256 71.6911 16.872L72.1951 10.416H62.7631L62.2591 16.92C62.2271 17.288 62.0911 17.584 61.8511 17.808C61.6271 18.016 61.3311 18.12 60.9631 18.12C60.5951 18.12 60.2991 18.008 60.0751 17.784C59.8671 17.56 59.7791 17.256 59.8111 16.872L60.9631 2.16C60.9791 1.792 61.1071 1.504 61.3471 1.296C61.5871 1.072 61.8911 0.959999 62.2591 0.959999C62.6271 0.959999 62.9151 1.072 63.1231 1.296C63.3311 1.52 63.4271 1.824 63.4111 2.208L62.9311 8.4H72.3631L72.8431 2.16C72.8591 1.792 72.9871 1.504 73.2271 1.296C73.4671 1.072 73.7711 0.959999 74.1391 0.959999Z" fill="#FF9000"/>
</svg>
