<svg width="227" height="40" viewBox="0 0 227 40" fill="none" xmlns="http://www.w3.org/2000/svg">
<path fill-rule="evenodd" clip-rule="evenodd" d="M74.0646 22.2328C78.5728 20.8828 81.8596 16.7155 81.8619 11.7676C81.8596 5.72905 76.9691 0.838537 70.9305 0.836241H52.0997V38.3141H58.3472V22.6989H67.0468L76.4708 38.3141H83.7561L74.0646 22.2328ZM58.3472 16.4503V7.08026H70.9305C73.5158 7.08485 75.611 9.17882 75.6144 11.7676C75.611 14.3506 73.5158 16.4457 70.9305 16.4503H58.3472ZM47.6734 4.82385C47.6734 7.36439 45.615 9.42507 43.0756 9.42507C40.5362 9.42507 38.4767 7.36439 38.4767 4.82385C38.4767 2.28445 40.5362 0.226074 43.0756 0.226074C45.615 0.226074 47.6734 2.28445 47.6734 4.82385ZM0 19.748C0.00114801 8.96587 8.7375 0.22837 19.5207 0.226074C30.3028 0.22837 39.038 8.96587 39.0403 19.748C39.038 30.5278 30.3028 39.2653 19.5207 39.2676C8.7375 39.2653 0.00114801 30.5278 0 19.748ZM10.1335 10.3584C7.72725 12.7738 6.24746 16.0709 6.24632 19.748C6.24746 23.4216 7.72725 26.721 10.1335 29.1318C12.5454 31.5392 15.8448 33.0189 19.5207 33.0212C23.1955 33.0189 26.4926 31.5392 28.9057 29.1318C31.3131 26.721 32.7929 23.4216 32.7929 19.748C32.7929 16.0709 31.3131 12.7738 28.9057 10.3584C26.4926 7.95447 23.1955 6.47583 19.5207 6.47354C15.8448 6.47583 12.5454 7.95447 10.1335 10.3584Z" fill="#D3002D"/>
<path fill-rule="evenodd" clip-rule="evenodd" d="M214.987 0.835449H207.397L197.783 14.7493L188.169 0.835449H180.578L194.652 21.2126V38.3133H200.901V21.2275L214.987 0.835449Z" fill="#D3002D"/>
<path fill-rule="evenodd" clip-rule="evenodd" d="M222.378 0C219.825 0 217.754 2.06986 217.754 4.62188C217.754 7.17391 219.825 9.24377 222.378 9.24377C224.928 9.24377 227 7.17391 227 4.62188C227 2.06986 224.928 0 222.378 0ZM222.378 8.50445C220.235 8.50445 218.496 6.76522 218.496 4.62188C218.496 2.4774 220.235 0.73817 222.378 0.73817C224.518 0.73817 226.258 2.4774 226.258 4.62188C226.258 6.76522 224.518 8.50445 222.378 8.50445Z" fill="#D3002D"/>
<path fill-rule="evenodd" clip-rule="evenodd" d="M224.451 3.60593C224.451 2.8471 223.839 2.23291 223.079 2.23291H220.478V6.94319H221.259V4.98124H222.578L223.523 6.94319H224.397L223.43 4.93647C224.019 4.78149 224.451 4.24537 224.451 3.60593ZM221.259 3.01815H223.079C223.406 3.01815 223.666 3.28104 223.666 3.60593C223.666 3.93196 223.406 4.19601 223.079 4.19601H221.259V3.01815Z" fill="#D3002D"/>
<path fill-rule="evenodd" clip-rule="evenodd" d="M114.183 7.07947V0.835449H88.1279V38.3133H114.183V32.0659H94.372V22.697H113.229V16.4495H94.372V7.07947H114.183Z" fill="#D3002D"/>
<path fill-rule="evenodd" clip-rule="evenodd" d="M133.517 38.3133V0.835449H139.763V32.0659H157.782V38.3133H133.517Z" fill="#D3002D"/>
<path fill-rule="evenodd" clip-rule="evenodd" d="M162.874 38.3133V0.835449H169.123V32.0659H187.141V38.3133H162.874Z" fill="#D3002D"/>
<path fill-rule="evenodd" clip-rule="evenodd" d="M120.738 38.3133H126.983V0.835449H120.738V38.3133Z" fill="#D3002D"/>
</svg>
