<svg width="32" height="32" viewBox="0 0 32 32" fill="none" xmlns="http://www.w3.org/2000/svg">
<path d="M31.1761 23.6021L27.198 19.624C26.1012 18.5273 24.3166 18.5273 23.2199 19.624L21.4117 21.4322C20.5809 22.2631 19.2289 22.2628 18.3983 21.4325L10.5608 13.5883C9.72797 12.7555 9.72784 11.4076 10.5608 10.5746C10.852 10.2834 11.6883 9.44707 12.369 8.76644C13.4609 7.67457 13.4762 5.8955 12.3679 4.78738L8.39091 0.822876C7.29415 -0.273812 5.50959 -0.273812 4.41578 0.820001C3.59728 1.63138 3.33328 1.89313 2.96628 2.25694C-0.988727 6.21188 -0.988727 12.6471 2.96609 16.6019L15.3843 29.0266C19.3486 32.991 25.7649 32.9913 29.7294 29.0266L31.1761 27.5801C32.2728 26.4833 32.2728 24.6988 31.1761 23.6021ZM5.7389 2.14888C6.10447 1.78331 6.69922 1.78325 7.06597 2.14988L11.043 6.11438C11.4094 6.48082 11.4094 7.07388 11.043 7.44038L10.3799 8.10338L5.07928 2.80275L5.7389 2.14888ZM16.7106 27.7008L4.29228 15.2759C1.2324 12.2161 1.06421 7.41138 3.77503 4.15057L9.06028 9.43582C7.67153 11.0101 7.7294 13.4091 9.23447 14.9141L17.0717 22.758C17.0718 22.758 17.0719 22.7581 17.072 22.7582C18.5754 24.2617 20.9742 24.3233 22.5505 22.9327L27.8359 28.2181C24.5854 30.9242 19.7915 30.7818 16.7106 27.7008ZM29.8501 26.2541L29.187 26.9171L23.883 21.613L24.5459 20.95C24.9115 20.5845 25.5064 20.5844 25.872 20.95L29.85 24.9281C30.2157 25.2937 30.2157 25.8886 29.8501 26.2541Z" fill="black"/>
</svg>
