<svg width="28" height="28" viewBox="0 0 28 28" fill="none" xmlns="http://www.w3.org/2000/svg">
<path d="M14 28C21.732 28 28 21.732 28 14C28 6.26801 21.732 0 14 0C6.26801 0 0 6.26801 0 14C0 21.732 6.26801 28 14 28Z" fill="#FF9000"/>
<path d="M22.5766 10.0617C21.9766 10.3277 21.3313 10.5077 20.6544 10.588C21.3455 10.174 21.8758 9.51889 22.1261 8.737C21.4795 9.12058 20.763 9.39885 20.0011 9.54883C19.3907 8.89872 18.5209 8.49243 17.5579 8.49243C15.7101 8.49243 14.2115 9.99106 14.2115 11.8388C14.2115 12.1011 14.2412 12.3564 14.2986 12.6015C11.5174 12.462 9.0515 11.1298 7.40089 9.10461C7.11289 9.59875 6.94768 10.174 6.94768 10.7872C6.94768 11.9479 7.5389 12.9726 8.43633 13.5725C7.88804 13.5553 7.37169 13.4048 6.92073 13.1535C6.92048 13.1678 6.92048 13.182 6.92048 13.196C6.92048 14.8174 8.07446 16.1697 9.60503 16.477C9.32452 16.5538 9.02829 16.5945 8.72357 16.5945C8.50745 16.5945 8.29807 16.5738 8.09393 16.5349C8.51968 17.864 9.75527 18.8316 11.22 18.8588C10.0745 19.7565 8.63173 20.2913 7.06348 20.2913C6.79395 20.2913 6.52692 20.2756 6.26562 20.2444C7.74578 21.1942 9.50521 21.748 11.3949 21.748C17.5501 21.748 20.9162 16.6489 20.9162 12.2264C20.9162 12.0814 20.913 11.9369 20.9065 11.7937C21.5609 11.322 22.1281 10.7328 22.5766 10.0617Z" fill="white"/>
</svg>
